<svg width="332" height="439" viewBox="0 0 332 439" fill="none" xmlns="http://www.w3.org/2000/svg">
<path fill-rule="evenodd" clip-rule="evenodd" d="M89.9486 379.323C129.197 365.871 167.559 403.477 235.01 414.395C302.461 425.313 350.938 337.857 324.115 292.637C297.291 247.418 302.461 188.425 320.162 132.354C337.864 76.282 315.231 42.9048 291.178 29.2405C267.126 15.5763 243.522 11.2938 205.876 13.8642C168.23 16.4346 129.004 27.6146 92.3068 46.1366C55.61 64.6586 14.3549 105.704 10.1045 132.024C5.85401 158.344 22.8369 160.918 25.8753 202.548C28.9138 244.178 -12.9308 299.841 4.08424 337.597C21.0993 375.354 50.7 392.775 89.9486 379.323Z" fill="#2067A1"/>
<path d="M273 81.5L197 92H189.5L182 113.5V247.5H273V81.5Z" fill="white" stroke="white"/>
<path d="M78.5005 349.5C78.5005 367.5 76.8338 381.333 76.0005 386L85 380L86 374.5C86.6667 361.833 88.2 335.6 89 332C92 317 87.5 311 85 306.5C84.2 300.1 77.3333 289.167 74 284.5C83.6667 289 104.2 298.8 109 302C113.8 305.2 102 321.667 95.5 329.5L101 332C107.167 321.833 119.6 300.8 120 298C124.5 290.5 110 282 101 279.5C92 277 87 266.5 86 266.5C85 266.5 76 265 74 264.5C69.4995 264.5 68.0005 265.5 68.0005 266.5C50.5005 273.5 65.5005 301 68.0005 305.5C78.5005 327 78.0005 342 78.5005 349.5Z" fill="white" stroke="white"/>
<path d="M98.5015 168.5C97.3015 167.3 98.0015 165.333 98.5015 164.5C100.503 160 105.5 161 106.5 161C107.5 161 117 168.5 117 175.5C117 182.5 111.5 183 108 182C104.5 181 102.5 182 100 186.5C97.5 191 100.5 197 101.5 200.5C102.5 204 99.5 212 99.5 214C99.5 216 101 218 103.5 217.5C106 217 117.5 203.5 125.5 197C133.5 190.5 133.5 193.5 134.5 193.5C135.3 193.5 132.833 195.833 131.5 197L134.456 201.434C134.472 201.456 134.487 201.478 134.5 201.5L134.456 201.434C133.864 200.629 131.34 199.996 125.5 203.5C119.5 207.1 113 223 110.5 230.5C109 228.333 105.1 223.2 101.5 220C97.9 216.8 94.6667 217 93.5 217.5L106 226.5C107.5 228.667 110.9 233.1 112.5 233.5C114.1 233.9 119.167 232 121.5 231C125.667 229 134.4 224.7 136 223.5C137.6 222.3 138.667 219.667 139 218.5L140 222.5L144 219.5L142 223.5L145 221.5L142 225L145 224L142.5 226.5C125.3 242.5 110 246.833 104.5 247C94.5 248.6 86.3333 229.333 83.5 219.5C80.5 233.5 93.5 245 94.5 247C95.3 248.6 94.8333 250.333 94.5 251C94.1667 251.833 93.5 254 93.5 256C93.5 258.5 91.5 261.5 89.5 262.5C85 265 76 263 69.5009 262.5C63.0018 262 60.5009 265.5 58.5009 266C56.9009 266.4 57.1676 265.167 57.5009 264.5C58.3342 262.333 60.3009 257.1 61.5009 253.5C63.0009 249 67.0009 225.5 69.5009 216.5C72.0009 207.5 76.0009 199 79.5009 196C83.0009 193 95.5009 184 97.5011 182C100.501 176.5 99.5011 174.5 97.5011 172.5C95.5011 170 99.5011 172 101.501 172.5C103.501 173 100.002 170 98.5015 168.5Z" fill="white" stroke="white"/>
<path fill-rule="evenodd" clip-rule="evenodd" d="M142.082 116.982C141.537 118.393 140.805 119.982 139.346 120.383L141.391 121.922C145.217 114.193 148.536 106.212 151.319 98.0487C160.668 98.3808 170.032 98.2802 179.372 97.7474L174.493 111.942C174.164 112.9 174.453 114.527 175.399 114.166C190.267 76.1816 204.951 38.1257 219.452 0C216.978 0.113865 216.029 2.77599 215.087 5.42054C214.135 8.08917 213.19 10.7399 210.691 10.7362L185.364 10.6984C186.158 8.90977 186.597 6.9636 186.646 5.00691C185.346 5.27129 184.674 6.68082 184.196 7.91824L142.082 116.982ZM199.017 46.7318C196.804 52.9656 194.529 59.1776 192.194 65.3667C191.822 66.3526 191.419 67.3813 190.619 68.0667C189.418 69.0954 187.673 69.0826 186.092 69.0382C178.289 68.8187 170.47 69.1511 162.713 70.032C162.977 71.617 165.084 71.9463 166.69 71.8927L187.119 71.2107C187.696 71.1915 188.332 71.1917 188.772 71.566C189.513 72.1977 189.212 73.3863 188.849 74.2904L181.391 92.8869C181.134 93.5282 180.854 94.2005 180.308 94.624C179.654 95.1312 178.765 95.1737 177.938 95.195L152.392 95.8525C152.531 94.9159 153.006 94.0326 153.711 93.4005C162.849 94.0232 172.06 93.5585 181.088 92.0195C172.132 89.9344 162.699 89.9268 153.74 91.9972L183.442 15.4558C183.689 14.8171 184.065 14.0767 184.747 14.0133C193.878 13.1656 203.054 12.8103 212.223 12.9498C211.756 16.0279 207.705 16.7631 204.592 16.7503L186.893 16.6777C185.631 16.6725 183.879 17.2165 184.134 18.4526C184.334 19.4204 185.615 19.6121 186.603 19.5868L209.473 19.0018C207.99 24.1362 206.106 29.1549 203.845 33.9972C203.537 34.6576 203.207 35.3341 202.659 35.8139C201.707 36.6459 200.328 36.7091 199.064 36.73L179.377 37.0563C178.511 37.0706 177.581 37.1054 176.885 37.6215C176.189 38.1377 175.942 39.328 176.638 39.8449C177.023 40.1313 177.546 40.1198 178.026 40.0959L201.875 38.9074C202.189 41.0477 200.541 43.0853 198.557 43.9482C196.574 44.8112 194.331 44.772 192.168 44.7181L177.518 44.3527C175.504 44.3024 172.661 45.203 173.165 47.1544C181.784 47.2841 190.407 47.1431 199.017 46.7318ZM184.635 2.34893C169.582 40.8337 154.506 79.31 139.409 117.778C139.018 118.774 137.82 119.942 137.137 119.118C136.786 118.695 136.971 118.063 137.172 117.551L181.675 4.28952C182.185 2.99224 183.585 1.43273 184.635 2.34893ZM223.609 5.9572L183.844 109.105C183.147 110.912 182.129 112.99 180.213 113.275L222.985 2.42393C224.293 2.78341 224.097 4.69111 223.609 5.9572ZM165.555 66.6212C165.314 66.1012 165.648 65.4604 166.139 65.1643C166.629 64.8681 167.228 64.829 167.8 64.7993C175.152 64.4178 182.518 64.3213 189.877 64.51C190.54 64.527 190.723 65.5578 190.263 66.0355C189.802 66.5133 189.068 66.5657 188.405 66.5879L167.38 67.2916C166.692 67.3147 165.845 67.2466 165.555 66.6212ZM114.727 201.451C116.47 201.38 117.348 199.362 117.822 197.683L129.528 156.23C129.972 154.656 130.42 153.016 130.13 151.407C128.402 152.951 127.691 155.305 127.058 157.535C122.903 172.161 118.793 186.8 114.727 201.451ZM132.29 218.781C132.476 219.333 132.808 219.836 133.243 220.223C130.682 220.219 128.191 220.86 125.697 221.501C123.454 222.078 121.209 222.655 118.908 222.765C117.856 222.815 116.374 222.14 116.836 221.193C117.038 220.778 117.541 220.622 117.991 220.513C122.669 219.384 127.478 218.802 132.29 218.781ZM92.8648 190.777C93.9369 194.089 96.2025 197 99.1496 198.853C99.4365 197.379 98.1876 196.218 97.0345 195.146L97.034 195.146L97.0333 195.145L97.0326 195.144L97.031 195.143L97.0297 195.142L97.0274 195.14L97.0245 195.137C96.8343 194.96 96.6469 194.786 96.4695 194.613C94.7705 192.956 93.721 190.649 93.5878 188.28C92.8808 188.868 92.5815 189.902 92.8648 190.777ZM102.401 168.975C103.746 168.975 105.998 170.762 104.901 171.616C103.805 172.47 101.277 168.975 102.401 168.975ZM117.797 227.419L125.25 224.992C125.796 224.814 126.452 224.489 126.432 223.915C122.743 224.172 119.079 224.79 115.511 225.758C114.776 225.957 114.905 227.177 115.579 227.531C116.254 227.885 117.073 227.655 117.797 227.419ZM107.19 165.336C107.769 164.771 111.023 166.862 109.889 168.072C109.308 168.692 106.549 165.961 107.19 165.336ZM101.08 168.036C101.186 167.818 101.293 167.597 101.466 167.4C101.682 167.153 102.022 166.859 102.364 166.563L102.364 166.563C103.037 165.982 103.716 165.394 103.474 165.148C102.033 165.523 100.767 166.523 100.066 167.837C99.4769 168.975 100.393 169.058 100.581 168.774C100.823 168.564 100.95 168.302 101.08 168.036ZM110.926 168.975C111.102 169.067 111.291 169.159 111.483 169.253C112.535 169.766 113.712 170.341 113.615 171.42C113.499 172.696 111.983 173.615 111.481 172.436C111.578 172.227 111.784 172.153 111.998 172.077C112.322 171.961 112.663 171.839 112.663 171.228C112.663 170.808 112.266 170.504 111.852 170.187C111.412 169.85 110.953 169.497 110.926 168.975ZM107.256 163.217C105.881 163.358 104.721 164.729 104.853 166.104C105.051 166.262 105.346 165.825 105.674 165.337C105.908 164.989 106.16 164.616 106.406 164.414C106.669 164.199 107.138 163.982 107.571 163.782C108.185 163.499 108.728 163.249 108.512 163.081C108.297 163.104 108.09 163.126 107.884 163.149L107.878 163.15L107.876 163.15C107.672 163.172 107.468 163.195 107.256 163.217ZM135.449 246.449C135.883 247.194 134.751 247.848 133.898 247.978C126.066 249.175 118.207 250.201 110.33 251.057C110.112 250.105 110.743 249.122 111.579 248.618C112.416 248.115 113.417 247.983 114.386 247.863L119.3 247.251C124.254 246.635 129.222 246.017 134.214 246.003C134.674 246.002 135.218 246.052 135.449 246.449ZM102.32 220.873C100.027 218.278 96.4554 215.451 93.518 217.285C99.8321 221.023 105.417 225.988 109.868 231.821C111.84 234.405 115.899 233.268 118.845 231.896L130.436 226.496C134.206 224.74 138.433 222.426 139.235 218.345C139.747 219.712 139.827 221.237 139.463 222.651C140.763 221.168 142.435 220.013 144.281 219.321L141.601 223.186L144.912 221.513C143.881 222.436 143.02 223.551 142.389 224.783L144.748 224.035C136.251 232.104 126.52 238.872 115.998 244.031C111.618 246.178 106.691 248.086 101.967 246.871C97.818 245.804 94.6242 242.504 92.1202 239.028C87.8415 233.089 84.8933 226.196 83.5534 218.999C82.2969 223.697 83.3188 228.773 85.4115 233.163C87.5042 237.552 90.6031 241.371 93.7014 245.119C94.2552 245.789 94.8291 246.498 94.9913 247.352C95.1218 248.04 94.9692 248.746 94.8172 249.43L92.9261 257.931C92.6629 259.114 92.3813 260.338 91.6486 261.304C90.4076 262.939 88.1836 263.45 86.1349 263.586C83.1972 263.781 80.1832 263.453 77.1874 263.127C71.9148 262.553 66.6989 261.985 62.055 264.284L62.0348 264.294C60.4943 265.057 58.4915 266.049 57.284 264.832C61.7808 255.721 63.4543 245.635 65.1278 235.548C65.7667 231.698 66.4056 227.847 67.2016 224.051C70.0826 210.311 76.0765 195.885 88.4703 189.291C90.8771 188.01 93.114 186.41 95.104 184.547C96.9732 182.796 98.6811 180.701 99.2005 178.193C99.6793 175.881 98.8666 173.182 96.9106 171.941C98.356 172.639 100.065 172.783 101.603 172.32C98.8495 171.078 97.3359 167.605 98.3014 164.742C99.2668 161.879 102.575 160.032 105.518 160.712C107.523 161.174 109.151 162.593 110.651 164C112.848 166.058 115.01 168.253 116.308 170.969C117.606 173.685 117.913 177.042 116.404 179.647C114.895 182.251 111.276 183.656 108.669 182.15C105.281 180.193 100.919 183.572 100.049 187.386C99.4106 190.183 99.932 193.041 100.453 195.896C100.643 196.935 100.832 197.974 100.966 199.009C101.436 202.652 101.203 206.385 100.284 209.942C99.613 212.537 98.9275 216.017 101.291 217.281C103.576 218.504 106.076 216.181 107.705 214.165C114.388 205.89 122.456 198.736 131.472 193.091C132.359 192.535 134.008 192.371 133.999 193.417C132.725 194.635 131.895 196.308 131.697 198.059C133.201 198.225 134.498 199.542 134.639 201.05C134.249 201.243 133.434 201.219 132.459 201.19C130.862 201.143 128.835 201.083 127.547 201.948C125.475 203.342 123.964 205.404 122.496 207.424C117.384 214.458 112.12 221.845 110.762 230.433L102.32 220.873ZM96.3904 171.659C96.5593 171.762 96.733 171.856 96.9106 171.941C96.7453 171.837 96.5719 171.742 96.3904 171.659ZM123.419 208.504C126.276 204.495 131.151 199.992 135.364 202.539C136.147 201.326 134.82 199.878 133.812 198.778C133.206 198.116 132.715 197.58 132.869 197.298C132.928 197.191 132.99 197.079 133.054 196.962C134.732 193.913 137.969 188.034 128.225 193.409C121.581 197.074 111.383 207.336 106.122 212.63C104.042 214.723 102.734 216.039 102.723 215.863C102.516 212.431 102.422 208.615 102.328 204.799L102.328 204.798C102.235 200.982 102.141 197.165 101.934 193.733C101.79 191.349 101.669 188.841 102.723 186.697C103.777 184.554 106.44 183.003 108.603 184.015C114.109 186.593 120.073 179.407 118.875 173.447C117.676 167.487 112.43 163.331 107.542 159.717C110.031 156.7 110.593 152.224 108.928 148.685C107.262 145.146 103.454 142.727 99.5431 142.723C100.141 145.245 99.6275 148.01 98.1643 150.149C96.7335 152.241 94.5746 153.612 92.409 154.987C91.4036 155.625 90.3967 156.264 89.4605 156.977C86.5079 159.226 84.0904 163.275 85.8827 166.525C86.9156 168.398 88.9249 169.275 90.9532 170.159C92.7609 170.948 94.5836 171.743 95.7434 173.256C98.1598 176.408 96.4569 181.195 93.5004 183.847C91.681 185.479 89.5053 186.606 87.3245 187.735L87.3242 187.735L87.3228 187.736C85.9604 188.441 84.5961 189.148 83.3154 189.98C74.1449 195.934 70.4041 207.312 67.5385 217.863C63.0571 234.365 59.1579 251.024 55.8505 267.801L60.4481 267.779C56.0967 273.077 55.8977 280.788 57.861 287.357C59.2992 292.168 61.7284 296.584 64.1571 300.998C65.0438 302.61 65.9303 304.221 66.7686 305.852C72.6413 317.275 76.2343 330.151 75.1297 342.948C74.5234 349.971 72.5324 356.792 70.552 363.557L48.9766 437.263C53.3289 423.985 57.8797 409.305 62.4306 394.625L62.4311 394.624C66.9821 379.943 71.5331 365.263 75.8857 351.984C76.0674 351.429 75.9765 353.878 75.8857 356.327C75.7948 358.776 75.7039 361.224 75.8857 360.67C74.8005 364.761 73.5149 368.973 72.29 372.987C71.3579 376.041 70.461 378.98 69.7144 381.662C68.3216 386.665 67.0151 391.402 65.7023 396.163L65.7014 396.166C62.401 408.133 59.0606 420.245 54.211 437.085C61.2747 421.676 65.0605 405.005 68.8003 388.473C69.6039 388.47 70.5695 388.467 71.5351 388.465C72.5006 388.462 73.4662 388.459 74.2698 388.457C73.315 387.307 69.7144 386.541 69.7144 386.541L70.1074 384.543C70.1074 384.543 74.9206 385.364 74.6746 384.307C74.1835 383.953 70.552 383.4 70.552 383.4C70.552 383.4 74.4931 369.079 75.8857 364.434L74.9206 387.051C74.8832 387.927 74.887 388.915 75.5091 389.533C76.1484 390.168 77.1727 390.145 78.0676 390.04C80.7414 389.727 83.3732 389.057 85.8716 388.054C87.929 387.228 90.072 385.909 91.1299 384.071L98.3016 384.285C98.3016 384.285 97.9332 385.862 97.756 386.619C97.7293 386.733 95.7618 386.785 93.8027 386.837C91.8601 386.889 89.9257 386.94 89.8997 387.051C89.8659 387.195 91.778 387.4 93.6796 387.604H93.6799L93.6806 387.604C95.5611 387.805 97.431 388.005 97.3983 388.145C96.4885 392.019 95.7102 395.633 95.0636 398.635L95.0634 398.636L95.0633 398.637C94.4496 401.487 93.9544 403.786 93.5778 405.236C93.2112 406.647 92.7858 408.154 91.6644 409.085C90.9744 409.658 86.6312 410.174 83.9891 410.487C83.0969 410.593 82.3986 410.676 82.1006 410.73C78.3202 411.418 75.0718 411.466 72.0173 411.511H72.017H72.0167C69.5312 411.547 67.174 411.581 64.7632 411.958C63.6219 412.136 63.0194 413.197 63.3834 413.554C68.1775 413.408 72.7723 413.082 77.367 412.756L77.3692 412.756C81.9632 412.43 86.5573 412.104 91.3507 411.958C91.2468 412.421 91.1958 412.806 91.1538 413.122C91.0511 413.896 91.0029 414.259 90.3684 414.358C86.1622 415.012 81.7306 415.35 77.2991 415.688C72.8676 416.026 68.436 416.364 64.2299 417.019C62.8436 417.234 61.2137 419.094 62.5477 419.528L90.0463 416.424C88.0272 422.145 85.9775 428.138 86.8154 434.146C101.07 384.094 114.869 333.913 128.21 283.61C121.828 282.83 115.278 283.453 109.157 285.422C114.217 286.86 120.216 289.334 120.85 294.556C121.179 297.268 119.858 299.877 118.576 302.289L101.858 333.755L95.3983 330.24L107.757 307.392C108.75 305.554 109.738 303.254 108.607 301.498C108.002 300.558 106.929 300.048 105.912 299.585L71.8886 284.097C76.7505 286.915 80.3281 291.859 81.4838 297.358C82.1006 300.293 83.5021 302.954 84.9075 305.622L84.9077 305.622C85.9028 307.512 86.8999 309.405 87.6219 311.401C90.1519 318.399 89.1426 326.043 88.1609 333.478L88.1609 333.479L88.1608 333.48L88.1607 333.48C88.0579 334.259 87.9555 335.035 87.8574 335.807C86.2186 348.722 85.9013 361.804 86.9121 374.783L76.9023 377.077C78.836 354.473 80.5611 330.627 70.8306 310.133C69.6216 307.587 68.2462 305.121 66.8714 302.657C64.9706 299.25 63.0709 295.844 61.6137 292.23C59.1023 286.002 58.0137 278.774 60.7685 272.65C63.5234 266.525 71.0636 262.318 77.2391 264.957C80.0616 266.163 83.2906 266.393 86.2555 265.598C93.2803 280.606 113.863 287.366 128.418 279.447C129.982 278.596 130.588 276.696 131.056 274.978L143.322 229.936C140.097 232.181 139.332 236.402 138.615 240.361L138.615 240.362L138.614 240.363C138.524 240.861 138.434 241.355 138.341 241.841C137.503 246.185 134.977 251.213 130.553 251.261C122.517 251.349 114.49 252.271 106.642 254.007L107.905 248.87C119.503 244.973 130.362 238.889 139.741 231.032C143.765 227.66 147.834 222.226 145.234 217.666L140.519 219.495C141.091 218.724 140.553 217.422 139.604 217.28C132.589 224.857 122.939 229.945 112.724 231.452C113.311 222.918 118.455 215.47 123.419 208.504ZM91.4759 383.352C91.3794 383.6 91.2633 383.84 91.1299 384.071L90.3684 384.049C90.3684 384.049 90.6004 383.653 91.4759 383.352ZM89.1718 341.66C89.6567 344.496 92.54 347.068 95.594 347.464C99.6124 347.985 103.488 346.014 107.061 344.103C107.796 343.71 108.553 343.298 109.065 342.641C110.507 340.788 109.19 337.861 107.09 336.81C104.99 335.76 102.501 336.029 100.172 336.322C103.936 335.68 105.552 331.487 106.965 327.821L106.967 327.817L106.97 327.808C107.081 327.521 107.19 327.237 107.299 326.958C108.803 323.119 112.936 319.009 116.418 321.217C113.727 329.647 111.39 338.19 109.416 346.816L93.4224 348.709C91.5058 348.936 88.927 350.241 89.7565 351.984L108.729 349.36L102.078 373.593C101.586 375.384 99.5431 382.438 99.5431 382.438C99.5431 382.438 93.543 382.887 92.1264 383.177C91.8778 383.228 91.6623 383.287 91.4759 383.352C91.6552 382.891 91.7669 382.401 91.7958 381.883C91.9642 378.872 87.0634 376.706 85.9122 379.493C84.4294 378.128 86.059 375.101 88.0152 375.587C87.5665 364.27 87.955 352.92 89.1718 341.66ZM89.1718 341.66C89.2671 340.778 89.3675 339.896 89.4729 339.016C89.1008 339.885 89.0222 340.785 89.1718 341.66ZM89.4729 339.016C90.0919 333.846 90.8858 328.697 91.8537 323.58L96.4207 323.403L89.5002 338.953L89.4932 338.969L89.4729 339.016ZM111.963 280.326C107.978 280.863 103.369 281.208 100.499 278.391C100.216 278.113 99.9485 277.791 99.8721 277.402C99.802 277.045 99.902 276.678 100.001 276.328L105.81 255.798C109.464 256.308 113.174 255.822 116.831 255.336L134.974 252.923C133.071 260.626 131.032 268.296 128.858 275.927C128.639 276.698 128.371 277.534 127.702 277.977C127.277 278.257 126.753 278.332 126.248 278.4L111.963 280.326ZM157.582 167.893C157.307 172.701 156.99 177.67 154.799 181.958C152.607 186.247 151.971 190.14 151.971 190.14L150.256 195.899C145.34 195.544 140.354 196.188 135.69 197.781C140.219 199.758 145.556 199.797 150.113 197.885C147.814 203.962 146.48 210.402 146.176 216.891C153.875 193.831 160.552 170.43 166.182 146.78C169.254 147.353 169.226 151.748 168.408 154.765L92.7289 433.657C91.6643 437.263 89.5503 448.333 97.6568 419.528C106.95 386.508 121.553 333.693 135.909 281.774C148.986 234.478 161.858 187.926 170.323 157.755C170.981 155.41 171.644 152.317 171.201 149.922C170.757 147.527 168.847 145.216 166.412 145.173C163.44 149.512 161.336 154.444 160.258 159.592L131.848 162.205C133.125 160.031 133.003 157.114 131.549 155.054L120.13 198.01C125.068 187.644 128.624 176.621 130.675 165.324L159.949 161.359C160.041 165.722 153.916 166.612 149.552 166.591C143.164 166.562 136.773 167.862 130.905 170.387C139.855 170.734 148.851 169.893 157.582 167.893ZM91.9332 315.363C91.9231 316.36 92.2407 317.357 92.8252 318.165C95.1682 317.625 97.5885 317.422 99.9887 317.563C98.6757 319.166 97.5791 320.946 96.738 322.839L96.3538 321.27L92.0496 321.474L91.1957 317.719C90.7289 315.665 90.259 313.576 90.4041 311.475C90.5236 309.745 91.0562 308.074 91.5848 306.422L94.7154 296.642L104.846 300.728C105.677 301.063 106.537 301.418 107.136 302.084C107.735 302.75 107.983 303.822 107.454 304.545C104.756 308.23 102.449 312.201 100.585 316.371C100.294 315.755 100.287 315.011 100.564 314.389C97.6687 314.505 94.7818 314.831 91.9332 315.363ZM96.5237 248.959C96.6109 248.309 97.399 247.95 98.0429 248.078C98.6868 248.206 99.2056 248.667 99.6901 249.11L100.555 248.313C101.05 248.372 101.074 249.08 100.955 249.565C98.9766 257.639 96.7043 265.641 94.1446 273.55L88.9848 265.174C90.9875 265.447 92.9251 264.074 93.9407 262.326C94.9562 260.579 95.2441 258.516 95.5123 256.513L96.5237 248.959ZM100.603 340.907C101.309 340.028 101.68 338.886 101.624 337.759C102.113 337.661 102.634 337.726 103.083 337.943C102.817 338.953 103.013 340.075 103.604 340.936C104.243 340.193 104.362 339.046 103.889 338.187C105.708 337.95 107.622 338.603 108.917 339.902C107.617 342.417 105.029 344.068 102.314 344.867C99.599 345.667 96.7284 345.722 93.8983 345.771C92.9939 345.787 91.9774 345.758 91.3507 345.106C90.6305 344.356 90.7688 343.154 90.9927 342.139C91.4902 339.884 92.1722 337.67 93.0297 335.526C95.3103 336.749 97.8142 337.554 100.38 337.889C100.247 338.896 100.323 339.93 100.603 340.907ZM76.467 380.409C77.5156 381.421 79.2119 381.073 80.6345 380.757C82.057 380.442 83.881 380.395 84.6013 381.662C84.7276 381.884 84.8055 382.129 84.8833 382.374C84.9722 382.654 85.061 382.933 85.2214 383.177C85.5222 383.634 86.2907 383.863 86.5817 383.4L85.1841 379.801L88.8431 382.438C88.9997 381.613 88.7218 380.718 88.1255 380.127C88.8022 379.077 90.6662 379.895 90.822 381.135C90.9778 382.374 90.0676 383.487 89.1063 384.285C87.0721 385.973 84.5857 387.011 82.1005 387.911C80.5364 388.478 78.507 388.887 77.4422 387.609C77.5032 387.163 77.4399 386.7 77.2612 386.287C76.9364 386.374 76.5743 386.309 76.2995 386.116C76.1801 384.214 76.2363 382.301 76.467 380.409ZM98.0932 276.902C96.8254 276.552 95.9974 275.069 96.3643 273.806L103.56 249.036C104.284 248.958 105.024 249.019 105.726 249.215L98.0932 276.902ZM116.542 310.792C116.775 310.274 117.007 309.757 117.243 309.244C118.713 306.05 120.373 302.944 122.212 299.947C122.787 301.747 121.902 303.619 121.082 305.351L120.993 305.541C120.963 305.604 120.934 305.666 120.904 305.729C119.515 308.695 118.588 311.876 118.167 315.124C117.848 317.586 114.772 319.233 112.547 318.134C114.243 315.914 115.395 313.348 116.542 310.792ZM88.665 294.327C88.8974 294.697 88.8476 295.172 88.7794 295.604C88.3161 298.539 87.3724 301.398 85.9972 304.032L81.65 292.018C83.7301 292.345 85.7731 292.907 87.7278 293.69C88.0846 293.833 88.4608 294.001 88.665 294.327ZM116.546 286.714C119.544 285.265 123.056 284.907 126.285 285.722C125.169 288.556 124.434 291.54 124.107 294.568C123.397 294.845 122.944 293.826 122.78 293.082C122.105 290.025 119.587 287.453 116.546 286.714ZM92.5293 296.226C92.6684 296.704 92.5296 297.214 92.3913 297.693L89.1467 308.916C88.1054 307.406 88.439 305.374 88.8425 303.584C89.4672 300.812 90.1586 298.055 90.9158 295.316C91.5764 295.14 92.3385 295.569 92.5293 296.226ZM98.2488 336.107C97.0506 336.055 95.7585 335.968 94.8357 335.202C93.913 334.436 93.7239 332.726 94.7761 332.15L99.2305 334.472L98.2488 336.107ZM80.8927 379.881C79.6131 380.123 78.2988 379.845 77.0263 379.568L77.1914 378.309C79.3713 378.324 81.5531 378.037 83.6548 377.458C83.4209 378.739 82.1724 379.639 80.8927 379.881ZM115.141 173.697C115.356 173.606 115.601 173.712 115.689 173.934C115.777 174.156 115.675 174.41 115.46 174.501C114.407 174.946 113.759 175.536 113.214 176.353C112.978 176.706 112.652 177.449 112.329 178.183L112.328 178.184C111.884 179.194 111.446 180.19 111.259 180.142C110.934 180.059 111.748 176.84 112.375 175.9C113.017 174.939 113.942 174.204 115.141 173.697ZM211.924 89.1414L263.331 84.1197C264.541 84.0014 266.158 83.3569 265.864 82.1765C248.086 83.5171 230.325 85.0864 212.586 86.8838C211.413 87.0027 209.843 88.151 210.728 88.9308C211.041 89.2066 211.509 89.1819 211.924 89.1414ZM219.815 132.441C219.828 132.818 219.854 133.226 220.099 133.513C220.436 133.907 221.033 133.91 221.551 133.88L235.818 133.067C236.33 133.038 236.856 133.006 237.324 132.796C238.887 132.097 239.018 129.968 238.934 128.258C238.604 121.494 238.654 114.711 239.086 107.953C239.145 107.038 239.59 105.809 240.488 105.991L240.27 132.62C240.266 133.202 240.236 133.847 239.83 134.263C239.443 134.659 238.839 134.721 238.287 134.76C235.156 134.979 232.023 135.189 228.891 135.4L219.376 136.039C219.02 136.063 218.632 136.078 218.344 135.868C217.954 135.584 217.918 135.026 217.919 134.543L217.955 110.981C217.957 110.122 218.024 109.127 218.723 108.627C219.773 109.886 219.77 111.687 219.727 113.325C219.561 119.696 219.59 126.072 219.815 132.441ZM276.043 205.757C276.083 204.697 276.088 203.634 276.092 202.581L276.373 112.285C276.381 109.872 276.312 107.237 274.761 105.388C274.175 139.634 274.087 173.888 274.497 208.136C274.355 209.008 274.337 209.929 274.342 210.798C274.366 214.976 274.295 221.218 274.224 227.461C274.153 233.703 274.082 239.946 274.106 244.123C274.116 245.885 272.655 247.383 271.001 247.989C269.347 248.596 267.53 248.504 265.772 248.404L181.577 243.608L182.052 213.534C192.061 212.524 202.193 212.739 212.15 214.174C211.585 220.21 211.226 226.265 211.072 232.325C210.155 232.838 204.982 232.815 199.215 232.79C193.644 232.766 187.519 232.74 184.14 233.19C197.525 235.837 211.19 235.467 224.88 235.096C235.086 234.819 245.306 234.542 255.433 235.515C255.876 235.644 256.185 234.96 255.933 234.572C255.682 234.185 255.178 234.068 254.724 233.983L245.234 232.205L245.66 217.533C245.682 216.771 245.719 215.961 246.155 215.335C247.013 214.104 248.624 214.328 250.261 214.555C251.835 214.774 253.432 214.996 254.406 213.933C253.315 220.631 253.871 227.591 256.011 234.031C257.732 189.189 258.369 144.305 257.923 99.4327C257.913 98.4286 257.854 97.3083 257.129 96.6144C256.379 95.8978 255.213 95.9155 254.178 95.9782L221.317 97.9698C214.624 98.3754 207.685 98.8493 201.798 102.058L256.107 97.5083C256.015 100.646 251.873 101.629 248.736 101.742C232.159 102.334 215.638 104.473 199.457 108.122C202.848 109.406 206.704 109.419 210.104 108.157C211.21 107.747 211.845 109.405 211.852 110.584L211.988 132.62C211.993 133.369 211.748 134.381 210.999 134.358C203.69 134.131 196.352 134.81 189.208 136.376C189.414 137.528 190.968 137.721 192.135 137.634L211.787 136.176C212.802 136.1 214.12 135.723 214.125 134.705L214.251 109.568C214.254 108.823 214.28 108.013 214.753 107.437C215.3 106.77 216.254 106.641 217.113 106.561L255.157 102.989L256.821 127.559C256.95 129.461 255.404 131.153 253.622 131.83C251.841 132.507 249.87 132.398 247.968 132.28C247.295 132.238 246.545 132.159 246.111 131.643C245.735 131.196 245.718 130.559 245.719 129.975L245.763 106.57C245.764 105.985 244.849 105.815 244.432 106.224C244.015 106.634 243.982 107.283 243.975 107.868L243.719 130.208C243.715 130.586 243.701 130.945 243.687 131.283C243.607 133.278 243.555 134.552 245.778 134.705C248.377 134.885 254.053 134.033 256.416 132.934L255.41 177.311L247.194 177.544C246.268 177.57 245.249 177.633 244.584 178.277C243.872 178.965 243.815 180.067 243.803 181.056L243.542 203.494C243.538 203.835 243.523 204.16 243.51 204.467C243.434 206.145 243.383 207.281 245.234 207.5C247.423 207.758 252.241 207.119 254.296 206.32C254.841 208.372 254.909 210.549 254.492 212.631L245.291 211.948C244.561 211.893 243.553 212.076 243.547 212.808L243.411 230.015C243.4 231.429 242.824 233.366 241.426 233.152C240.251 232.972 239.99 231.413 240.019 230.224L240.416 213.647C240.437 212.752 239.249 212.437 238.354 212.409L219.959 211.832C219.47 211.816 218.949 211.809 218.535 212.069C217.834 212.507 217.747 213.474 217.735 214.3L217.552 227.202C217.516 229.799 216.601 233.289 214.006 233.165L213.902 214.098C213.899 213.531 213.874 212.906 213.488 212.491C213.157 212.134 212.645 212.027 212.166 211.942C202.532 210.222 192.628 210.024 182.932 211.357C181.622 209.418 181.156 206.93 181.676 204.648C183.993 205.749 186.664 205.732 189.229 205.693L211.572 205.353C212.162 205.344 212.8 205.319 213.262 204.953C213.899 204.448 213.951 203.517 213.949 202.704L213.903 182.245C213.901 180.987 213.839 179.582 212.936 178.705C212.01 177.805 210.56 177.81 209.27 177.871L183.715 179.092C182.945 174.983 182.586 170.797 182.644 166.618C182.797 166.057 181.895 165.714 181.444 166.079C180.992 166.444 180.926 167.096 180.896 167.676C179.611 192.547 179.256 217.465 179.832 242.363C179.89 244.858 183.139 245.726 185.631 245.866L265.529 250.36C267.818 250.489 270.185 250.607 272.335 249.808C274.484 249.008 276.373 247.036 276.324 244.743C276.212 239.51 276.194 232.212 276.176 224.914C276.16 217.923 276.143 210.932 276.043 205.757ZM236.653 207.496L218.948 206.976C218.671 206.968 218.375 206.954 218.148 206.793C217.78 206.532 217.744 206.009 217.744 205.558L217.73 179.842C217.73 179.19 217.765 178.454 218.25 178.019C218.678 177.634 219.312 177.619 219.887 177.624L239.125 177.8C239.431 177.803 239.766 177.816 239.997 178.017C240.279 178.26 240.301 178.682 240.301 179.055L240.317 205.533C240.318 207.089 238.208 207.542 236.653 207.496ZM220.003 179.817C219.347 180.131 219.257 181.012 219.258 181.74L219.275 204.234C219.275 204.504 219.293 204.814 219.505 204.982C219.642 205.091 219.826 205.111 219.999 205.127C225.105 205.592 230.245 205.68 235.364 205.391C236.934 205.302 239.003 204.633 238.866 203.066C238.251 196.063 238.194 189.01 238.695 181.998C238.808 180.424 236.676 179.852 235.098 179.836L220.875 179.692C220.579 179.689 220.27 179.688 220.003 179.817ZM220.37 140.511C219.583 140.395 218.595 140.348 218.19 141.033C218.024 141.314 218.007 141.655 217.995 141.981C217.619 151.982 217.593 161.995 217.917 171.998C219.321 171.518 219.503 169.641 219.457 168.158C219.191 159.712 219.699 151.262 220.206 142.827C226.069 143.431 232.015 143.213 237.818 142.182C238.639 142.035 238.961 143.207 238.931 144.041C238.643 151.931 238.627 159.831 238.883 167.721C238.992 168.152 238.384 168.371 237.94 168.388L221.016 169.055C220.367 169.081 220.218 170.104 220.691 170.55C221.163 170.996 221.886 171.007 222.536 170.99L239.213 170.57C239.532 170.562 239.889 170.537 240.101 170.298C240.29 170.087 240.3 169.776 240.3 169.493L240.307 141.573C240.307 141.26 240.303 140.932 240.158 140.655C239.766 139.911 238.697 139.982 237.871 140.14C232.113 141.244 226.169 141.37 220.37 140.511ZM276.949 93.8374C276.82 97.7467 276.663 101.779 275.014 105.326L274.242 89.6945C274.125 87.3225 272.836 84.0638 270.579 84.8025L270.271 239.013C270.265 242.074 270.251 245.19 269.346 248.115C268.37 247.561 268.257 246.225 268.261 245.103L268.826 84.6675C268.828 84.2621 268.832 83.8433 268.995 83.472C269.39 82.5705 270.563 82.2907 271.537 82.4355C273.826 82.7759 275.589 84.7732 276.341 86.9619C277.093 89.1506 277.025 91.5243 276.949 93.8374ZM211.717 145.081L211.81 167.413C211.811 167.828 211.787 168.301 211.467 168.565C211.245 168.748 210.938 168.778 210.652 168.8L184.504 170.8C183.69 170.862 183.555 172.159 184.176 172.691C184.797 173.222 185.708 173.185 186.522 173.111C188.588 172.922 190.657 172.683 192.727 172.445C199.277 171.689 205.835 170.932 212.349 171.769C213.598 171.929 214.091 170.207 214.098 168.947L214.245 141.718C214.247 141.403 214.228 141.043 213.984 140.844C213.773 140.672 213.471 140.687 213.2 140.711L190.869 142.695C190.284 142.747 189.667 142.811 189.196 143.161C188.726 143.512 188.498 144.256 188.887 144.695L209.651 143.582C210.373 143.543 211.261 143.595 211.584 144.242C211.712 144.497 211.716 144.795 211.717 145.081ZM243.74 167.571L243.867 141.58C243.869 141.17 243.883 140.724 244.142 140.406C244.381 140.114 244.771 140 245.136 139.903L252.82 137.847C253.521 137.659 254.311 137.482 254.939 137.847C255.567 138.212 255.655 139.37 254.951 139.549L247.452 141.467C246.937 141.599 246.383 141.755 246.058 142.176C245.737 142.59 245.721 143.156 245.718 143.68L245.587 167.221C245.584 167.832 245.847 168.68 246.445 168.556C249.377 167.944 252.459 168.065 255.334 168.903C255.105 170.133 253.483 170.399 252.232 170.381L245.235 170.28C244.083 170.263 243.734 168.722 243.74 167.571ZM211.248 180.815C211.599 181.107 211.627 181.626 211.627 182.082L211.633 201.711C211.633 202.534 211.472 203.579 210.675 203.784C202.014 203.179 193.319 203.051 184.643 203.399C183.834 203.431 183.134 202.758 182.862 201.996C182.59 201.233 182.65 200.398 182.708 199.591C183.095 194.238 183.254 188.869 183.185 183.502C183.177 182.858 183.237 182.083 183.803 181.775C184.001 181.667 184.232 181.639 184.457 181.613C193.021 180.632 201.657 180.28 210.272 180.562C210.615 180.574 210.985 180.596 211.248 180.815ZM238.711 218.429C238.308 222.173 238.236 225.953 238.496 229.71C238.511 229.923 238.493 230.212 238.474 230.528C238.429 231.268 238.375 232.152 238.711 232.523C238.117 233.166 225.559 233.072 220.672 232.611C220.224 232.569 219.718 232.491 219.461 232.121C219.278 231.859 219.271 231.518 219.271 231.199L219.258 215.981C219.257 215.429 219.28 214.817 219.666 214.423C220.077 214.003 220.738 213.993 221.326 214.012L234.974 214.438C236.235 214.477 237.696 214.622 238.393 215.674C238.914 216.461 238.812 217.49 238.711 218.429ZM245.539 180.854C245.539 180.476 246.022 180.328 246.398 180.29L255.577 179.362L255.095 203.274C255.084 203.821 255.017 204.467 254.54 204.735C254.319 204.86 254.054 204.871 253.801 204.879L247.194 205.087C246.685 205.103 246.098 205.085 245.778 204.689C245.541 204.397 245.53 203.988 245.53 203.611L245.539 180.854Z" fill="#00160A"/>
</svg>
