<svg width="431" height="407" viewBox="0 0 431 407" fill="none" xmlns="http://www.w3.org/2000/svg">
<path fill-rule="evenodd" clip-rule="evenodd" d="M43.1866 182.629C43.1866 182.629 27.2126 166.761 54.9521 118.211C82.6915 69.6616 130.364 84.3481 162.858 66.876C210.869 41.0603 193.816 16.7466 251.214 17.3539C323.482 18.1185 321.902 93.5323 357.884 96.2401C360.25 96.4182 417.975 78.1213 421.537 140.371C423.332 171.72 349.042 213.729 349.042 213.729C349.042 213.729 317.598 238.195 314.99 251.249C304.052 305.995 313.427 370.346 152.799 387.558C132.025 389.784 99.0269 373.593 82.1507 347.003C68.9294 326.172 8.88561 335.727 8.2593 270.463C7.94362 237.569 43.1866 182.629 43.1866 182.629Z" fill="#2067A1"/>
<path d="M152.164 146.772C152.722 146.497 153.397 146.726 153.672 147.284L154.783 149.525C159.195 158.377 161.007 161.28 163.06 162.685C164.748 163.84 166.596 163.661 170.082 161.953L170.549 161.719C172.747 160.568 182.855 154.69 186.749 152.599C187.297 152.305 187.98 152.511 188.274 153.059C188.568 153.607 188.363 154.29 187.814 154.584L187.215 154.909C182.872 157.282 173.09 162.97 171.369 163.83C167.144 165.944 164.482 166.29 161.963 164.661L161.788 164.545C159.089 162.697 157.13 159.396 151.652 148.28C151.377 147.722 151.606 147.047 152.164 146.772Z" fill="white"/>
<path d="M169.379 161.125C170 161.089 170.533 161.564 170.569 162.185C170.736 165.071 171.437 168.005 172.675 170.991C172.914 171.566 172.641 172.225 172.066 172.463C171.492 172.701 170.833 172.429 170.594 171.854C169.262 168.641 168.502 165.46 168.32 162.315C168.284 161.694 168.758 161.161 169.379 161.125Z" fill="white"/>
<path fill-rule="evenodd" clip-rule="evenodd" d="M295.081 239.583C294.865 240.028 294.42 240.633 293.914 241.199L294.28 241.642L294.704 242.167L294.799 242.273C294.841 242.316 294.874 242.343 294.899 242.352C295.047 242.384 295.14 242.529 295.108 242.678C295.076 242.823 294.931 242.919 294.784 242.886C294.649 242.873 294.173 242.645 293.625 242.126C293.526 242.032 293.428 241.925 293.329 241.808C292.963 242.159 292.599 242.456 292.289 242.635C291.834 242.901 291.457 242.896 291.288 242.762C291.12 242.631 290.981 242.223 291.328 241.445C291.384 241.303 291.544 241.239 291.683 241.295C291.822 241.351 291.89 241.509 291.834 241.65C291.779 241.795 291.763 241.93 291.754 242.039L291.929 241.938C291.991 241.9 292.054 241.858 292.114 241.806C292.329 241.624 292.571 241.401 292.816 241.157C292.491 240.716 292.164 240.202 291.912 239.619C291.79 239.334 291.697 239.035 291.612 238.721C291.549 238.545 291.642 238.35 291.819 238.288C291.996 238.225 292.19 238.319 292.252 238.495C292.528 239.205 292.902 239.828 293.276 240.365L293.401 240.54C293.815 240.077 294.175 239.603 294.35 239.235C294.447 239.034 294.689 238.949 294.89 239.044C295.093 239.142 295.178 239.383 295.081 239.583Z" fill="white"/>
<path fill-rule="evenodd" clip-rule="evenodd" d="M138.602 85.2932L137.927 85.1177C134.157 84.1192 131.291 83.0259 125.958 80.7151C125.346 80.4501 125.065 79.7394 125.33 79.1278C125.595 78.5162 126.306 78.2351 126.918 78.5002L128.247 79.0726C132.928 81.0735 135.566 82.028 139.199 82.9541C151.421 86.0705 161.175 80.409 162.846 68.3375C162.938 67.6772 163.547 67.2161 164.207 67.3075C164.868 67.3989 165.329 68.0083 165.237 68.6686C163.357 82.2448 152.154 88.7483 138.602 85.2932Z" fill="#00160A"/>
<path fill-rule="evenodd" clip-rule="evenodd" d="M168.577 100.611L169.152 102.199L170.694 102.77C170.777 102.801 170.82 102.893 170.789 102.977C170.779 103.003 170.764 103.025 170.743 103.043L169.456 104.145L169.394 105.865C169.391 105.954 169.316 106.023 169.227 106.02C169.197 106.019 169.168 106.009 169.143 105.992L167.846 105.119C167.806 105.091 167.755 105.084 167.708 105.099L166.216 105.565C166.131 105.592 166.041 105.544 166.014 105.46C166.005 105.431 166.004 105.4 166.012 105.371L166.444 103.705L165.526 102.282C165.478 102.207 165.499 102.108 165.574 102.059C165.597 102.044 165.623 102.036 165.651 102.034L167.291 101.928L168.296 100.57C168.349 100.499 168.45 100.484 168.521 100.537C168.547 100.556 168.566 100.582 168.577 100.611Z" fill="#00160A"/>
<path d="M329.799 73.9232C330.421 73.9257 330.923 74.432 330.921 75.0541C330.919 75.6762 330.412 76.1786 329.79 76.1762C325.334 76.1588 321.723 77.6146 319.857 81.7473C319.744 81.9961 319.649 82.2371 319.569 82.467L319.514 82.6251L319.593 82.4887C321.839 78.6594 325.803 76.1794 330.208 75.8059L330.496 75.7845C331.117 75.745 331.652 76.2162 331.692 76.8371C331.731 77.458 331.26 77.9934 330.639 78.0329C326.553 78.293 322.893 80.7197 321.094 84.4603L320.977 84.7116C320.111 86.6274 318.319 87.4425 317.339 85.6733C316.74 84.5943 316.922 82.7715 317.803 80.82C320.039 75.8701 324.462 73.9025 329.799 73.9232Z" fill="white"/>
<path d="M325.313 65.1696C325.935 65.172 326.437 65.6783 326.435 66.3005C326.432 66.9226 325.926 67.425 325.304 67.4225C318.215 67.3949 311.687 71.5088 308.719 78.0828C307.838 80.0316 307.574 81.7345 307.77 82.6217L307.794 82.7209L307.849 82.653C307.989 82.4722 308.151 82.2096 308.316 81.8657L308.387 81.7133C311.523 74.7694 318.2 70.2435 325.667 69.7682C326.288 69.7286 326.823 70.1999 326.863 70.8208C326.902 71.4417 326.431 71.9771 325.81 72.0166C319.278 72.4324 313.428 76.3309 310.582 82.3335L310.44 82.6406C309.278 85.2156 307.108 86.2025 305.928 84.075C305.12 82.6171 305.381 79.9993 306.665 77.1556C310.003 69.7643 317.343 65.1386 325.313 65.1696Z" fill="white"/>
<path d="M319.257 53.4927C319.879 53.4951 320.381 54.0014 320.379 54.6236C320.376 55.2457 319.87 55.7481 319.248 55.7456C309.137 55.7063 299.827 61.5739 295.593 70.9503C294.152 74.1413 293.843 76.9146 294.408 78.1195L294.46 78.2217C294.546 78.376 294.513 78.3778 294.539 78.3594L294.555 78.3507C294.899 78.1942 295.382 77.6092 295.857 76.6144L295.952 76.4099C300.277 66.8332 309.485 60.5916 319.784 59.9359C320.405 59.8964 320.94 60.3677 320.98 60.9886C321.019 61.6095 320.548 62.1448 319.927 62.1843C310.575 62.7797 302.204 68.3796 298.163 76.9955L298.006 77.3372C296.501 80.6689 293.897 81.8531 292.49 79.3142C291.44 77.4213 291.793 73.8911 293.539 70.023C298.143 59.8294 308.265 53.4499 319.257 53.4927Z" fill="white"/>
<path d="M307.737 42.0797C308.355 42.0062 308.915 42.4476 308.989 43.0653C309.062 43.6831 308.621 44.2435 308.003 44.3169C298.764 45.4148 290.919 51.8176 288.104 60.8559C287.151 63.9148 287.177 66.4623 287.81 67.4811L287.895 67.6092L287.901 67.6266L287.915 67.6174C288.184 67.4085 288.523 66.8485 288.82 65.9632L288.883 65.7685C291.779 56.4729 299.542 49.693 308.94 47.9271C309.551 47.8122 310.14 48.2148 310.255 48.8262C310.37 49.4376 309.967 50.0264 309.356 50.1413C300.889 51.7323 293.877 57.7758 291.147 66.0861L291.034 66.4386C290.013 69.7171 287.681 71.1433 286.049 68.8965C284.854 67.2531 284.78 63.9512 285.953 60.1858C289.035 50.2914 297.624 43.2815 307.737 42.0797Z" fill="white"/>
<path d="M172.79 171.249L173.456 171.061C179.751 169.323 184.995 168.742 186.208 170.177C187.272 171.436 188.138 173.636 188.877 176.822C189.018 177.428 188.64 178.033 188.034 178.174C187.428 178.315 186.823 177.937 186.683 177.331C186.044 174.575 185.321 172.699 184.576 171.742L184.546 171.704L184.517 171.704C184.365 171.661 184.136 171.627 183.842 171.611C183.193 171.575 182.3 171.622 181.228 171.752C179.021 172.019 176.213 172.614 173.409 173.415C168.72 174.754 164.771 176.446 162.537 178.074C161.717 178.672 160.447 176.739 161.88 175.795C164.458 174.095 168.292 172.534 172.79 171.249Z" fill="white"/>
<path d="M171.302 149.796C171.02 153.542 174.678 157.897 175.503 158.192C176.089 158.401 165.275 164.342 165.275 164.342C161.513 164.552 159.562 161.238 159.915 156.548C159.962 155.927 171.349 149.175 171.302 149.796Z" fill="white"/>
<path fill-rule="evenodd" clip-rule="evenodd" d="M158.998 150.85C160.322 150.694 161.29 149.674 161.161 148.57C161.031 147.467 159.853 146.699 158.529 146.854C157.205 147.01 156.236 148.03 156.366 149.133C156.495 150.237 157.674 151.005 158.998 150.85Z" fill="#FFB61D"/>
<path d="M301.41 35.3391C302.03 35.2786 302.581 35.7316 302.641 36.3508C302.701 36.97 302.248 37.5209 301.629 37.5814C298.684 37.869 295.621 39.4078 292.388 41.9789C288.19 45.3175 285.22 50.1438 283.287 56.7312C281.729 62.0385 282.285 68.8584 284.849 75.0099C287.766 82.0086 293.698 84.1305 300.664 85.9521C307.816 87.8222 309.881 87.1551 316.916 85.2349L317.564 85.0533C318.527 84.769 323.034 83.3855 324.111 83.1464C326.376 82.6432 327.883 82.813 328.891 84.063C329.281 84.5474 329.205 85.2565 328.721 85.647C328.267 86.0131 327.615 85.9691 327.214 85.5631L327.137 85.4771C326.84 85.1083 326.174 85.0181 324.8 85.3026L324.599 85.3458C323.564 85.5758 318.675 87.0819 318.044 87.26C310.44 89.4044 307.859 90.1622 300.094 88.1318C292.4 86.1197 285.942 83.4884 282.769 75.8767C280.012 69.2614 279.418 61.9136 281.125 56.0968C283.188 49.0662 286.422 43.8449 290.985 40.2156C294.558 37.3747 298.032 35.669 301.41 35.3391Z" fill="white"/>
<path d="M347.528 128.698C341.149 127.888 335.734 132.455 335.181 139.09C334.716 144.68 337.52 149.524 341.781 150.742C343.504 151.234 346.897 151.053 349.495 149.843C353.432 148.098 356.639 144.143 357.272 140.615C358.303 134.867 353.989 129.517 347.528 128.698Z" fill="white"/>
<path d="M231.576 118.795C233.311 123.08 235.769 132.862 234.398 132.712C230.592 132.298 225.928 126.049 222.954 117.85L222.72 117.191C220.143 109.757 218.617 105.093 220.85 104.39C223.16 103.663 227.996 109.951 231.576 118.795Z" fill="white"/>
<path fill-rule="evenodd" clip-rule="evenodd" d="M220.857 104.3C223.167 103.573 228.101 109.598 231.681 118.442C233.416 122.727 234.505 126.795 234.653 129.664C234.653 129.664 228.841 114.589 225.028 108.94C223.564 106.771 220.857 104.3 220.857 104.3Z" fill="#E7EAEE"/>
<path d="M216.922 140.868C217.132 140.282 217.776 139.977 218.362 140.187C218.948 140.397 219.253 141.041 219.043 141.627C218.774 142.381 215.647 144.175 208.853 147.688L204.567 149.888C196.106 154.204 190.471 156.949 189.796 156.898C185.329 156.562 181.622 152.045 179.184 145.176C177.055 139.178 176.243 132.167 177.185 127.684C177.479 126.285 182.463 122.981 190.103 118.626L191.197 118.006C197.951 114.205 203.689 111.441 205.708 111.189C206.325 111.113 206.888 111.551 206.965 112.168C207.013 112.554 188.159 126.165 185.68 135.954C184.002 142.582 187.574 154.363 189.767 154.632L189.965 154.651C189.786 154.638 189.847 154.601 189.869 154.59L190.079 154.501C190.234 154.434 190.418 154.352 190.631 154.255L191.605 153.803C191.978 153.627 192.393 153.429 192.848 153.21L194.012 152.646C196.234 151.564 199.009 150.181 201.841 148.746L204.535 147.374C207.812 145.696 210.775 144.144 213.005 142.933L214.155 142.304C214.867 141.91 215.47 141.567 215.952 141.283L216.127 141.178C216.394 141.019 216.615 140.882 216.789 140.768C216.789 140.768 216.979 140.709 216.922 140.868Z" fill="white"/>
<path fill-rule="evenodd" clip-rule="evenodd" d="M220.836 118.619C218.575 112.387 217.791 106.774 218.952 103.498C217.27 103.896 215.146 104.68 213.02 105.696C210.194 107.046 207.913 108.622 207.835 108.995C207.014 112.898 208.447 120.719 211.272 127.807C214.295 135.39 218.192 140.407 221.482 140.655C221.797 140.679 222.712 140.561 223.64 140.313C224.959 139.961 226.212 139.397 227.263 138.614C227.786 138.225 228.33 137.782 228.9 137.284L229.589 136.672C229.996 136.302 230.417 135.902 231.075 135.268L231.991 134.387L232.031 134.35C227.915 132.485 223.898 126.7 221.119 119.381L220.836 118.619ZM205.63 108.532C206.177 105.928 216.451 100.984 220.972 100.955C221.169 100.851 221.378 100.764 221.599 100.695C225.607 99.4327 231.035 106.54 235.086 116.269L235.363 116.944C237.183 121.442 238.333 125.736 238.497 128.895C238.692 132.671 237.423 135.069 234.574 134.982C234.476 135.271 234.265 135.503 233.999 135.632L233.953 135.651L233.834 135.753C233.714 135.859 233.573 135.991 233.353 136.201L231.84 137.654C231.292 138.174 230.904 138.526 230.381 138.982C229.769 139.516 229.181 139.995 228.609 140.421C226.292 142.147 222.992 143.028 221.313 142.902C220.422 142.835 219.537 142.56 218.664 142.096C217.624 143.03 214.509 144.763 208.853 147.689L204.566 149.888C196.106 154.204 190.471 156.949 189.796 156.898C188.266 156.783 186.825 156.178 185.494 155.155C185.481 155.163 185.467 155.171 185.453 155.179L184.853 155.504C182.766 156.644 179.422 158.55 176.32 160.319L176.126 160.429C176.303 163.186 176.966 165.986 178.118 168.834C183.055 167.705 186.915 167.488 187.933 168.693C188.997 169.952 189.864 172.152 190.603 175.338C190.743 175.944 190.366 176.55 189.76 176.69C189.154 176.831 188.548 176.453 188.408 175.847C187.769 173.091 187.046 171.215 186.302 170.258L186.271 170.22L186.242 170.22C186.09 170.177 185.861 170.144 185.567 170.127C184.919 170.091 184.025 170.138 182.953 170.268C180.746 170.535 177.939 171.13 175.134 171.931C168.724 173.762 163.695 176.251 162.543 178.337C162.206 178.948 162.174 179.876 162.413 181.319L162.458 181.579C162.495 181.784 162.535 181.987 162.587 182.244L162.884 183.71L162.9 183.794L162.923 183.922C163.034 184.534 162.627 185.12 162.015 185.231C161.403 185.342 160.817 184.935 160.706 184.323L160.561 183.582L160.317 182.384C160.29 182.243 160.265 182.112 160.241 181.979C159.868 179.91 159.89 178.482 160.571 177.248C161.726 175.157 164.998 173.147 169.471 171.432L168.714 168.934L168.529 168.302C168.245 167.318 167.928 165.99 167.746 165.024C164.234 166.589 161.86 166.716 159.602 165.256L159.426 165.139C158.981 164.834 158.555 164.49 158.131 164.077L144.364 171.083C144.466 171.356 144.57 171.631 144.675 171.908C145.17 173.22 144.061 174.038 142.41 174.616L142.232 174.676C140.816 175.142 139.567 175.179 138.89 174.313C136.081 170.723 133.445 162.441 135.327 160.734C135.688 160.406 136.612 159.947 138.349 159.196L138.488 159.137C138.523 159.116 138.561 159.096 138.6 159.079L151.408 153.337C151.438 153.324 151.467 153.312 151.497 153.302C150.831 151.988 150.103 150.525 149.3 148.895C149.176 148.657 149.145 148.387 149.2 148.134C149.235 147.975 149.304 147.823 149.407 147.69C149.464 147.616 149.53 147.549 149.606 147.49C152.316 145.281 155.952 143.038 160.48 140.67L161.029 140.384C162.987 139.371 166.945 137.492 170.308 135.896L170.309 135.895L170.31 135.895L170.31 135.895L170.31 135.895C172.919 134.656 175.169 133.588 175.85 133.226L176.015 133.133C176.263 132.979 176.548 132.933 176.814 132.982C176.747 131.017 176.865 129.205 177.185 127.684C177.479 126.285 182.463 122.981 190.103 118.626L191.196 118.007C197.596 114.405 203.082 111.735 205.359 111.25C205.375 110.24 205.463 109.325 205.63 108.532ZM205.433 113.546C203.191 114.18 197.483 117.013 191.218 120.583L190.215 121.159C187.394 122.788 184.781 124.387 182.799 125.701L182.248 126.069C181.363 126.669 180.643 127.188 180.119 127.609C179.856 127.82 179.647 128.002 179.498 128.148L179.394 128.253C179.372 128.273 179.367 128.265 179.38 128.195L179.389 128.148C179.386 128.166 179.383 128.181 179.38 128.195L179.332 128.433C177.539 137.832 183.228 153.829 189.766 154.632L189.92 154.647C189.933 154.649 189.948 154.65 189.965 154.652L189.92 154.647C189.797 154.631 189.849 154.6 189.868 154.59L190.079 154.501C190.234 154.434 190.418 154.352 190.631 154.255L191.605 153.803C191.977 153.627 192.393 153.429 192.848 153.21L194.011 152.646C196.233 151.564 199.008 150.182 201.84 148.747L204.535 147.374C207.811 145.696 210.775 144.144 213.005 142.933L214.155 142.304C214.867 141.91 215.469 141.568 215.952 141.283L216.127 141.179C216.383 141.026 216.597 140.893 216.768 140.782C214.034 138.441 211.48 134.305 209.334 129.025L209.18 128.642C207.118 123.468 205.761 117.931 205.433 113.546ZM176.96 135.183C176.111 135.632 173.618 136.817 170.843 138.136L170.843 138.136C167.555 139.699 163.873 141.45 162.064 142.385C157.792 144.595 154.324 146.68 151.714 148.693L152.421 150.12C155.516 156.33 157.332 159.612 158.849 161.503C158.399 160.162 158.239 158.491 158.395 156.421C158.402 156.326 158.421 156.234 158.45 156.147C158.373 155.709 158.562 155.248 158.963 154.998L159.771 154.487C160.256 154.174 161.054 153.654 161.962 153.063C163.949 151.768 166.459 150.133 167.352 149.59C170.16 147.882 172.204 146.959 174.02 146.722C174.887 146.609 175.512 147.164 175.646 147.961L175.667 148.106C175.694 148.342 175.685 148.571 175.646 149.072L175.634 149.23C175.484 151.099 175.588 152.191 176.286 153.497C176.763 154.39 177.501 155.228 178.557 156.008C178.668 156.09 178.759 156.188 178.83 156.297C180.71 155.23 182.47 154.238 183.767 153.53C181.96 151.497 180.411 148.635 179.183 145.176C178.04 141.954 177.276 138.44 176.96 135.183ZM236.247 129.012C236.098 126.142 235.009 122.075 233.275 117.79C229.695 108.946 224.585 102.116 222.275 102.844C220.042 103.547 220.144 109.757 222.72 117.191L222.954 117.85C225.928 126.049 230.592 132.298 234.399 132.713C235.769 132.862 236.39 131.78 236.247 129.012ZM152.515 155.289C154.226 158.586 155.493 160.775 156.625 162.316L143.573 168.957C142.506 166.058 141.559 163.363 140.648 160.629L152.33 155.393C152.396 155.364 152.457 155.328 152.515 155.289ZM175.911 169.38C174.888 166.784 174.24 164.209 173.97 161.657C172.276 162.621 170.802 163.455 169.855 163.974C169.951 164.76 170.387 166.643 170.784 167.988L171.527 170.431L171.597 170.669C172.532 170.355 173.507 170.053 174.515 169.765L175.182 169.577C175.426 169.51 175.669 169.444 175.911 169.38ZM176.766 157.471C175.676 156.586 174.862 155.613 174.299 154.559C173.387 152.853 173.22 151.442 173.366 149.341L173.38 149.153L173.216 149.2C172.044 149.557 170.625 150.254 168.826 151.332L168.523 151.515C167.666 152.036 165.22 153.629 163.246 154.915L163.246 154.916L163.245 154.916L163.245 154.916C162.147 155.631 161.196 156.25 160.746 156.537L160.64 156.604C160.361 160.341 161.165 162.126 162.837 163.089L162.971 163.163C163.371 163.377 163.659 163.491 164.485 163.786C164.501 163.792 164.518 163.798 164.534 163.804C165.431 163.576 166.47 163.16 167.721 162.548L168.187 162.314C169.222 161.772 172.012 160.181 175.08 158.432L175.08 158.432L175.087 158.428C175.641 158.112 176.203 157.791 176.766 157.471ZM138.582 161.554L138.723 161.977C139.704 164.896 140.733 167.791 141.91 170.952L142.368 172.178C142.179 172.285 141.934 172.396 141.666 172.489C141.281 172.624 140.895 172.71 140.607 172.727L140.516 172.729L140.392 172.555C139.427 171.165 138.36 168.848 137.635 166.569C137.248 165.355 136.991 164.249 136.901 163.407C136.865 163.064 136.857 162.778 136.876 162.563L136.893 162.421C136.898 162.387 136.899 162.369 136.891 162.366L136.926 162.345C137.126 162.229 137.633 161.981 138.383 161.644L138.582 161.554ZM154.264 160.246C153.863 159.77 153.152 159.71 152.676 160.111C151.84 160.816 150.695 161.446 148.708 162.361L146.687 163.292C146.152 163.545 145.713 163.766 145.315 163.984C144.982 164.166 144.683 164.343 144.413 164.521C143.893 164.864 143.75 165.562 144.092 166.082C144.435 166.601 145.133 166.745 145.653 166.402C145.867 166.261 146.114 166.114 146.396 165.96C146.656 165.818 146.941 165.672 147.271 165.511L147.916 165.203L149.969 164.26C151.943 163.339 153.141 162.666 154.129 161.833C154.604 161.432 154.665 160.721 154.264 160.246Z" fill="#00160A"/>
<path d="M120.552 272.428C123.813 304.17 143.095 329.298 169.543 336.871C174.398 338.261 182.927 339.038 191.856 338.559C203.359 337.942 214.702 335.394 224.866 330.646C252.736 318.265 275.274 290.412 279.844 264.889C283.859 242.47 276.798 220.948 262.293 204.882C262.293 204.882 211.394 225.297 186.267 237.187C164.402 247.534 120.552 272.428 120.552 272.428Z" fill="white"/>
<path d="M241.894 187.636C232.199 181.911 219.88 177.037 207.558 175.474C162.367 169.74 123.96 203.296 120.07 250.014C120.07 250.014 173.13 221.573 200.606 207.992C214.276 201.235 241.894 187.636 241.894 187.636Z" fill="white"/>
<path fill-rule="evenodd" clip-rule="evenodd" d="M336.999 170.835C336.259 178.633 327.016 191.01 312.624 204.721C302.199 214.652 290.226 224.109 280.314 230.343L279.698 230.727L279.956 232.481C281.486 242.66 283.648 253.763 281.696 264.648C276.959 291.069 253.872 319.541 225.239 332.229C214.778 337.105 203.107 339.719 191.289 340.35L190.163 340.404C181.359 340.775 173.021 339.976 167.997 338.54C148.496 332.965 132.768 317.856 124.137 297.053C124.108 296.983 124.087 296.912 124.073 296.841C122.68 297.502 120.821 298.218 119.979 298.434L117.675 299.024C92.8462 305.347 68.3259 310.355 58.8386 305.364C55.2269 303.464 54.1852 300.254 56.0614 296.188C57.8848 292.237 62.4864 287.314 70.0358 281.326L70.4505 280.999C77.6008 275.37 93.2979 265.284 117.542 250.74L117.57 250.441C122.323 202.296 162.553 168.348 209.418 174.893C223.752 176.895 234.838 182.877 240.33 186.451L242.952 185.288C267.533 174.431 287.162 166.977 302.029 162.749C326.478 155.797 337.936 160.77 336.999 170.835ZM302.414 167.988C275.076 175.762 231.378 194.584 170.181 225.545L168.321 226.487C120.664 250.649 88.9045 269.34 71.844 282.769L71.0028 283.436L70.2043 284.079C57.3721 294.497 54.7714 300.678 59.8876 303.37C68.6457 307.977 93.4571 303.188 117.855 297.17L120.117 296.608C122.293 296.065 123.732 295.767 124.617 295.646C124.657 295.621 124.701 295.6 124.746 295.581C125.055 295.453 125.389 295.473 125.668 295.608C125.73 295.624 125.769 295.647 125.788 295.675C125.974 295.795 126.127 295.97 126.218 296.19C134.597 316.385 149.923 329.461 168.732 334.837C173.614 336.233 181.97 337.013 190.757 336.591L191.285 336.564C202.83 335.948 214.106 334.932 224.307 330.178C252.287 317.779 274.876 289.921 279.479 264.251C281.446 253.28 280.814 242.318 277.724 231.926C277.389 232.125 277.057 232.319 276.729 232.509C276.107 232.867 276.377 232.231 277.538 230.6C277.609 230.381 277.748 230.187 277.936 230.048L278.292 229.568C278.416 229.401 278.547 229.227 278.684 229.047L280.1 228.024C293.447 218.355 303.771 210.043 311.07 203.089L311.904 202.291C325.422 189.277 334.099 177.536 334.748 170.624C335.46 163.04 325.506 161.422 302.414 167.988ZM178.924 301.559C181.245 310.998 176.239 316.579 168.19 316.282C160.752 316.007 154.351 310.825 155.195 304.211C155.924 298.493 160.315 292.654 165.323 290.765C171.379 288.48 176.622 292.199 178.924 301.559ZM166.317 293.4C162.31 294.911 158.589 299.859 157.988 304.567C157.39 309.255 162.322 313.247 168.294 313.467C174.538 313.698 178.046 309.786 176.189 302.232C174.255 294.367 170.609 291.781 166.317 293.4ZM241.616 287.4C244.915 294.956 243.371 302.019 237.216 304.774L237.044 304.849L236.952 304.928C228.431 312.184 218.453 312.391 212.421 306.213L212.215 305.997C205.287 298.621 207.941 287.043 220.473 278.753C228.537 273.418 237.548 278.081 241.616 287.4ZM221.804 280.766C210.427 288.292 208.165 298.16 213.974 304.345C218.141 308.781 224.736 309.505 231.21 305.991L231.337 305.92L231.293 305.907C230.874 305.762 230.557 305.391 230.493 304.935L230.483 304.819C230.454 304.153 230.971 303.59 231.637 303.561C233.16 303.496 234.498 303.23 235.648 302.792L235.805 302.729L236.004 302.553C236.786 301.844 237.556 301.068 238.309 300.222L238.56 299.937C238.843 299.612 239.262 299.475 239.659 299.537L239.689 299.543L239.708 299.514C241.364 296.773 241.313 292.886 239.512 288.617L239.404 288.365C235.866 280.262 228.404 276.401 221.804 280.766ZM299.887 199.775C299.104 201.926 296.994 204.8 293.839 208.155C288.339 214.002 280.237 220.68 273.258 225.138L274.844 223.637C274.831 223.623 274.82 223.605 274.811 223.585L274.375 222.618C271.523 216.335 268.288 210.106 262.702 204.806C246.817 209.999 228.499 217.352 211.721 225.22L206.221 227.805C165.717 246.887 144.287 258.524 121.211 273.075C121.757 276.852 122.523 280.556 123.504 284.162C123.658 284.728 120.95 286.599 120.502 286.309C115.922 288.903 108.935 290.511 105.039 290.329C101.243 290.151 99.1699 288.453 100.527 285.48C101.663 282.993 105.491 279.612 112.253 275.204L113.023 274.706L114.581 273.709C140.001 257.504 164.924 244.677 210.765 223.18L212.683 222.286C244.109 207.72 280.176 195.182 296.279 194.986C299.588 194.946 300.943 196.878 299.887 199.775ZM118.121 275.034L112.793 278.46C108.038 281.532 104.606 283.81 102.732 285.296L102.595 285.406C100.306 287.251 102.686 287.963 105.145 288.078C108.869 288.252 114.775 285.862 119.787 283.66C119.104 280.834 118.548 277.955 118.121 275.034ZM197.905 268.773C198.495 268.971 198.812 269.609 198.615 270.199C198.417 270.789 197.778 271.106 197.188 270.909C194.225 269.914 192.419 270.074 191.779 270.844C191.354 271.355 191.497 272.291 192.171 272.933C192.698 273.434 193.429 273.71 193.951 273.637C194.406 273.573 194.682 273.247 194.747 272.384C194.794 271.764 195.335 271.299 195.955 271.346C196.575 271.392 197.04 271.933 196.994 272.554C196.853 274.429 195.817 275.65 194.264 275.868C193.016 276.043 191.616 275.515 190.618 274.565C189.144 273.162 188.798 270.905 190.046 269.404C191.414 267.759 194.159 267.516 197.905 268.773ZM148.872 260.935C150.565 261.585 151.211 262.971 151.296 264.985L151.303 265.203L151.307 265.533C151.307 265.588 151.306 265.645 151.306 265.705L151.279 266.85L151.277 267.108C151.278 267.222 151.281 267.315 151.286 267.397L151.303 267.572L151.316 267.648L151.345 267.679C151.666 268.044 151.718 268.583 151.461 269.006L151.396 269.101C151.021 269.597 150.314 269.695 149.818 269.32C149.136 268.803 149.008 268.314 149.024 266.941L149.054 265.599C149.054 265.477 149.053 265.372 149.051 265.253C149.021 263.935 148.748 263.301 148.065 263.039C146.147 262.304 144.976 262.819 144.52 264.104C144.115 265.248 144.482 266.511 145.261 266.913L145.46 267.004C145.969 267.268 146.203 267.882 145.984 268.425C145.751 269.002 145.094 269.281 144.517 269.048C142.43 268.205 141.605 265.587 142.397 263.351C143.281 260.855 145.787 259.753 148.872 260.935ZM231.209 249.834C233.991 254.441 232.994 259.962 227.813 262.104C227.238 262.342 226.58 262.069 226.342 261.494C226.104 260.919 226.377 260.26 226.952 260.023C230.703 258.471 231.414 254.533 229.28 250.998C227.207 247.565 224.008 246.963 221.525 250.318C218.893 253.875 218.899 256.079 220.517 257.193C221.802 258.078 223.978 258.076 224.621 257.481L224.684 257.414C225.082 256.936 225.792 256.871 226.27 257.269C226.749 257.666 226.814 258.377 226.416 258.855C225.036 260.515 221.448 260.569 219.24 259.049C216.413 257.103 216.403 253.452 219.714 248.978C223.259 244.187 228.381 245.15 231.209 249.834ZM185.121 239.888C185.705 239.932 186.151 240.413 186.163 240.987L186.16 241.096C186.145 241.294 186.312 241.528 186.935 242.062L187.525 242.556C188.168 243.103 188.472 243.435 188.745 243.949C189.369 245.122 189.685 246.292 189.584 247.633C189.326 251.066 183.817 255.347 178.031 257.001C171.095 258.984 165.705 256.721 164.722 249.683C164.636 249.067 165.065 248.497 165.682 248.411C166.298 248.325 166.867 248.755 166.953 249.371C167.716 254.833 171.646 256.483 177.412 254.835C182.39 253.412 187.169 249.698 187.337 247.464C187.402 246.6 187.196 245.833 186.756 245.006L186.696 244.906C186.592 244.754 186.425 244.584 186.121 244.321L185.42 243.731C184.257 242.73 183.826 242.082 183.913 240.927C183.96 240.306 184.501 239.841 185.121 239.888ZM195.08 178.023L194.364 178.05C155.686 179.775 124.623 208.269 119.958 249.292L124.289 246.708C136.718 239.31 151.132 230.876 167.534 221.406L170.712 219.797C180.199 215.005 189.263 210.506 197.91 206.295C197.779 206.019 197.761 205.69 197.887 205.385C198.599 203.661 199.224 202.514 200.294 201.398C203.643 197.905 207.985 196.403 210.788 198.965C211.064 199.217 211.186 199.575 211.148 199.921L213.908 198.61C222.598 194.493 230.813 190.706 238.558 187.241L235.713 186.195C231.494 184.657 226.239 182.815 220.981 181.305C220.762 184.864 217.888 187.502 213.32 189.122C209.437 190.498 204.473 191.023 201.007 190.553C194.522 189.675 191.285 183.685 195.08 178.023ZM258.648 231.867C260.832 239.584 258.05 246.242 251.19 245.681C241.415 244.882 232.508 235.624 234.627 228.091C235.573 224.73 238.365 221.904 242.94 220.733C250.246 218.864 256.425 224.011 258.648 231.867ZM243.499 222.916C239.718 223.884 237.528 226.1 236.796 228.701C235.114 234.68 242.869 242.74 251.373 243.436C256.245 243.834 258.301 238.913 256.48 232.48C254.554 225.673 249.424 221.399 243.499 222.916ZM162.901 190.107L162.972 190.229L163.448 191.13C163.68 191.586 163.885 192.032 164.076 192.511C166.181 197.785 165.615 204.448 160.708 213.388C158.485 217.437 153.202 222.707 148.706 225.751C142.965 229.637 138.846 230.308 134.057 229.415L132.637 229.138L132.464 229.109C132.369 229.095 132.307 229.09 132.24 229.087L132.141 229.084C132.066 229.082 132.041 229.076 132.037 229.066L132.037 229.058L131.997 229.114C131.636 229.556 130.992 229.662 130.505 229.341C129.985 228.999 129.842 228.3 130.184 227.781C130.643 227.085 131.342 226.808 132.204 226.832C132.432 226.838 132.672 226.864 132.957 226.909L133.289 226.967L134.208 227.149C138.566 228.014 142.124 227.485 147.443 223.885C151.666 221.026 156.703 216.002 158.733 212.304C163.325 203.938 163.831 197.976 161.983 193.346C161.86 193.038 161.73 192.744 161.587 192.448L161.381 192.037L160.966 191.257C160.676 190.706 160.887 190.025 161.438 189.735C161.954 189.463 162.585 189.632 162.901 190.107ZM296.306 197.239C289.077 197.327 277.553 200.027 264.178 204.327L264.532 204.691C267.9 208.203 274.609 216.436 276.477 222.088L278.939 219.74C285.014 213.926 289.434 209.55 292.198 206.611L292.758 206.008C295.406 203.123 297.161 200.677 297.771 199.004L297.858 198.749C298.251 197.537 297.926 197.219 296.306 197.239ZM188.472 192.793C191.166 194.356 192.074 197.45 190.029 200.04C189.644 200.528 188.935 200.612 188.447 200.226C187.959 199.841 187.875 199.132 188.261 198.644C189.386 197.219 188.929 195.663 187.342 194.742C185.67 193.773 183.733 194.113 182.615 195.87C181.584 197.488 181.35 199.768 181.959 201.318C182.494 202.679 183.397 203 184.883 202.046C185.407 201.711 186.104 201.863 186.44 202.387C186.775 202.91 186.623 203.607 186.099 203.943C183.391 205.68 180.905 204.796 179.862 202.142C178.988 199.916 179.299 196.882 180.714 194.66C182.519 191.825 185.807 191.249 188.472 192.793ZM201.92 202.957C201.348 203.553 200.924 204.195 200.512 205.03C203.533 203.566 206.502 202.137 209.42 200.744L209.342 200.69L209.268 200.628C207.654 199.153 204.532 200.233 201.92 202.957ZM198.983 177.972L197.995 177.967L197.923 178.045C193.671 182.66 194.867 186.756 200.127 187.72C203.905 188.413 214.228 186.348 215.489 185.446C216.717 184.567 218.345 182.455 218.705 180.673C215.322 179.769 212.002 179.042 209.019 178.664C205.971 178.277 202.953 178.054 199.974 177.988L198.983 177.972Z" fill="#00160A"/>
<path d="M301.711 168.215C326.16 161.263 325.42 163.816 302.328 170.382C274.989 178.156 169.961 231.853 169.961 231.853C122.305 256.015 119.215 251.499 165.415 227.974L168.263 226.527C168.799 226.255 221.488 198.295 258.708 184.016C262.896 182.409 298.928 169.007 301.711 168.215Z" fill="white"/>
<path fill-rule="evenodd" clip-rule="evenodd" d="M346.066 127.783C338.722 126.851 332.537 132.147 331.913 139.638C331.391 145.914 334.592 151.518 339.674 152.971C341.013 153.353 344.936 153.648 348.482 151.996L348.776 151.862C353.249 149.755 356.515 145.353 357.191 141.581C358.391 134.892 353.41 128.715 346.066 127.783ZM333.517 139.771C333.521 139.723 333.525 139.675 333.53 139.627C333.577 139.615 333.623 139.6 333.669 139.579C339.683 136.901 343.43 134.797 344.983 133.191C346.009 132.13 346.564 130.889 346.631 129.5C347.594 129.68 348.503 129.963 349.347 130.333C349.339 130.374 349.333 130.416 349.332 130.46C349.252 132.46 348.6 134.015 347.376 135.171C345.969 136.501 344.293 137.74 342.407 138.886C340.391 140.111 338.245 141.166 336.113 142.046C335.615 142.252 335.142 142.437 334.699 142.604L334.058 142.838C333.966 142.871 333.881 142.901 333.803 142.928L333.612 142.992C333.461 141.963 333.424 140.882 333.517 139.771ZM333.947 144.577C334.349 146.024 334.991 147.329 335.825 148.414L336.325 148.175C344.197 144.375 349.137 141.297 351.092 139.011C353.068 136.699 353.848 134.868 353.543 133.56C353.536 133.53 353.531 133.499 353.527 133.468C352.8 132.58 351.914 131.797 350.897 131.155C350.692 133.272 349.887 135.013 348.481 136.341C346.986 137.754 345.22 139.06 343.243 140.262C341.149 141.534 338.931 142.624 336.727 143.534C336.084 143.799 335.48 144.033 334.925 144.236L334.278 144.466L333.947 144.577ZM339.488 151.214C338.562 150.859 337.714 150.328 336.966 149.652C345.068 145.746 350.166 142.571 352.315 140.056C353.648 138.496 354.533 137.07 354.946 135.769C355.282 136.528 355.519 137.328 355.648 138.154C355.601 138.234 355.567 138.323 355.55 138.42C355.213 140.281 354.106 142.07 352.199 143.791C350.368 145.443 346.513 147.735 340.668 150.634L339.488 151.214ZM342.181 151.677C343.912 151.697 346.056 151.351 347.83 150.524C351.124 149.065 353.907 146.059 355.099 143.05C354.582 143.711 353.975 144.356 353.277 144.986C351.397 146.682 347.708 148.903 342.181 151.677ZM334.15 137.598L333.853 137.732C335.162 132.498 339.685 129.012 345.028 129.303C345.006 130.349 344.612 131.26 343.827 132.072C342.557 133.384 339.312 135.247 334.15 137.598Z" fill="#00160A"/>
<path fill-rule="evenodd" clip-rule="evenodd" d="M405.148 116.767C405.297 116.795 405.391 116.939 405.363 117.086C405.345 117.305 405.196 117.413 405 117.475C404.824 117.531 404.554 117.484 404.393 117.494C402.645 117.497 401.376 116.116 400.899 114.423C400.441 112.796 400.737 110.915 401.873 109.826C402.004 109.698 402.214 109.699 402.342 109.83C402.471 109.961 403.237 110.23 403.106 110.358C402.166 111.302 401.535 111.87 402.17 114.325C402.805 116.78 405.038 116.746 405.148 116.767Z" fill="#E7EAEE"/>
<path fill-rule="evenodd" clip-rule="evenodd" d="M127.192 113.085C126.758 112.737 126.125 112.806 125.777 113.239C125.43 113.672 125.499 114.305 125.932 114.653C126.407 115.035 126.827 115.387 127.196 115.711C126.749 116.015 126.299 116.367 125.829 116.772L124.874 117.606C124.455 117.97 124.41 118.605 124.774 119.025C125.138 119.444 125.773 119.489 126.193 119.125L127.338 118.13C127.803 117.741 128.235 117.418 128.665 117.156C129.505 118.123 129.731 118.803 129.697 119.46L129.684 119.628L129.681 119.731C129.695 120.24 130.092 120.667 130.611 120.706C131.165 120.748 131.648 120.333 131.69 119.779L131.705 119.581C131.763 118.558 131.475 117.559 130.588 116.376C131.244 116.233 131.974 116.181 132.854 116.201C133.409 116.213 133.87 115.774 133.882 115.218C133.895 114.663 133.455 114.202 132.9 114.19C131.373 114.155 130.172 114.319 129.082 114.722C128.67 114.329 128.2 113.915 127.667 113.473L127.192 113.085Z" fill="#00160A"/>
<path fill-rule="evenodd" clip-rule="evenodd" d="M260.936 344.165L261.631 344.22C265.517 344.549 268.529 345.128 274.183 346.478C274.831 346.633 275.232 347.284 275.077 347.932C274.922 348.58 274.271 348.98 273.623 348.826L271.769 348.389C267.089 347.306 264.379 346.845 260.754 346.572C248.176 345.625 239.555 352.895 240.005 365.073C240.029 365.739 239.509 366.299 238.843 366.324C238.177 366.348 237.617 365.828 237.592 365.162C237.086 351.466 246.99 343.115 260.936 344.165ZM270.311 349.758L270.202 349.646C270.096 349.54 269.92 349.54 269.816 349.647C269.708 349.754 269.71 349.926 269.816 350.033L269.93 350.144C270.036 350.25 270.207 350.25 270.315 350.143C270.419 350.037 270.421 349.864 270.311 349.758ZM248.312 350.633C247.906 350.254 247.27 350.275 246.89 350.681C245.358 352.319 244.209 353.941 243.447 355.551C242.706 357.117 242.291 359.811 242.161 363.698L242.138 364.519C242.125 365.075 242.565 365.535 243.12 365.548C243.676 365.56 244.136 365.12 244.149 364.565C244.24 360.501 244.629 357.757 245.266 356.411C245.932 355.002 246.962 353.549 248.359 352.055C248.739 351.649 248.718 351.013 248.312 350.633ZM259.508 348.139C260.019 347.921 260.609 348.159 260.827 348.67C261.045 349.181 260.807 349.772 260.296 349.989C258.18 350.891 256.491 352.543 255.217 354.984C253.849 357.603 252.715 359.947 251.815 362.014C251.593 362.523 251 362.756 250.491 362.534C249.982 362.313 249.749 361.72 249.971 361.211C250.891 359.097 252.045 356.712 253.433 354.053C254.915 351.216 256.944 349.232 259.508 348.139ZM265.342 348.525C265.009 348.081 264.378 347.991 263.934 348.325C262.15 349.666 260.763 350.903 259.772 352.045C258.787 353.179 257.606 354.897 256.213 357.209C255.927 357.685 256.08 358.303 256.556 358.589C257.032 358.876 257.65 358.722 257.937 358.246C259.274 356.025 260.397 354.394 261.291 353.364C262.178 352.342 263.463 351.195 265.142 349.933C265.587 349.6 265.676 348.969 265.342 348.525ZM260.828 359.576C260.384 359.909 259.753 359.82 259.42 359.376C259.086 358.932 259.176 358.301 259.62 357.968C261.299 356.706 262.584 355.559 263.471 354.537C264.366 353.507 265.488 351.876 266.825 349.654C267.112 349.179 267.73 349.025 268.206 349.312C268.682 349.598 268.835 350.216 268.549 350.692C267.157 353.004 265.975 354.722 264.99 355.856C263.999 356.998 262.613 358.235 260.828 359.576ZM254.021 348.548C253.589 348.199 252.956 348.267 252.607 348.699C250.12 351.777 248.506 354.096 247.749 355.696C246.989 357.302 246.382 359.499 245.915 362.297C245.824 362.845 246.194 363.364 246.742 363.455C247.29 363.546 247.808 363.176 247.9 362.628C248.338 359.997 248.899 357.97 249.567 356.556C250.191 355.239 251.563 353.238 253.672 350.586L254.172 349.963C254.521 349.531 254.453 348.898 254.021 348.548Z" fill="#00160A"/>
<path fill-rule="evenodd" clip-rule="evenodd" d="M235.427 341.201L236.002 342.789L237.544 343.359C237.627 343.39 237.669 343.483 237.639 343.566C237.629 343.592 237.613 343.615 237.592 343.633L236.306 344.734L236.244 346.454C236.24 346.543 236.166 346.612 236.077 346.609C236.047 346.608 236.018 346.599 235.993 346.582L234.696 345.708C234.655 345.681 234.605 345.673 234.558 345.688L233.065 346.155C232.98 346.181 232.89 346.134 232.864 346.049C232.855 346.02 232.854 345.99 232.861 345.961L233.294 344.295L232.375 342.871C232.327 342.796 232.349 342.697 232.423 342.649C232.446 342.634 232.473 342.625 232.5 342.623L234.141 342.517L235.146 341.16C235.199 341.088 235.3 341.073 235.371 341.126C235.396 341.145 235.416 341.171 235.427 341.201Z" fill="#00160A"/>
<path fill-rule="evenodd" clip-rule="evenodd" d="M307.417 130.379C307.761 130.734 308.177 131.359 308.536 132.028L309.077 131.835L309.716 131.617C309.845 131.569 309.928 131.531 309.956 131.496C310.037 131.369 310.205 131.331 310.334 131.411C310.46 131.492 310.5 131.66 310.419 131.787C310.36 131.91 309.983 132.279 309.308 132.617C309.186 132.678 309.052 132.733 308.908 132.786C309.113 133.25 309.267 133.694 309.329 134.046C309.424 134.564 309.291 134.917 309.106 135.031C308.926 135.143 308.495 135.134 307.882 134.542C307.768 134.442 307.762 134.269 307.863 134.157C307.963 134.045 308.135 134.036 308.248 134.137C308.366 134.238 308.487 134.299 308.586 134.345L308.551 134.146C308.537 134.075 308.519 134.001 308.491 133.927C308.393 133.662 308.266 133.359 308.121 133.046C307.596 133.2 307.001 133.331 306.366 133.368C306.057 133.387 305.744 133.371 305.42 133.344C305.233 133.342 305.082 133.189 305.084 133.001C305.085 132.814 305.239 132.663 305.426 132.664C306.188 132.648 306.901 132.51 307.534 132.342L307.741 132.284C307.447 131.738 307.125 131.237 306.839 130.946C306.684 130.787 306.686 130.53 306.844 130.374C307.006 130.217 307.262 130.219 307.417 130.379Z" fill="#00160A"/>
<path fill-rule="evenodd" clip-rule="evenodd" d="M76.364 249.541C75.3099 249.531 73.6263 249.673 72.2259 250.11C71.028 250.484 70.083 263.041 73.9843 264.341C77.8387 265.957 82.2931 264.537 82.2826 257.779C82.2839 257.637 82.1989 257.247 82.1014 256.799C81.9587 256.143 81.7893 255.364 81.8254 255.068C81.9584 254.017 81.7482 253.106 81.0585 252.493C80.3959 250.762 78.9321 249.569 76.364 249.541ZM74.9038 261.336C73.0671 259.736 73.6462 252.954 75.9014 252.668C77.2037 253.835 78.35 255.464 78.5532 258.452C77.9544 260.044 76.878 260.91 75.9369 261.668C75.8362 261.749 75.7371 261.829 75.6403 261.908C75.4 261.746 75.1546 261.553 74.9038 261.336Z" fill="white"/>
<path fill-rule="evenodd" clip-rule="evenodd" d="M72.8379 257.202C72.7409 256.133 72.9502 254.96 73.5759 253.739C73.8596 253.186 74.5275 252.768 75.3427 252.515C76.2957 252.219 77.4415 252.123 78.1589 252.13C79.9066 252.149 80.9028 252.956 81.3538 254.126C81.8232 254.541 81.9663 255.157 81.8758 255.868C81.8345 256.206 82.1892 257.466 82.1871 257.702C82.1945 262.272 79.1631 263.233 76.5399 262.14C75.4787 262.582 74.4863 262.594 73.7859 261.987C73.1574 261.444 72.7247 260.367 72.7455 258.527C72.7499 258.052 72.7807 257.61 72.8379 257.202ZM77.8349 254.569C76.2684 254.756 75.8686 259.206 77.145 260.258C77.3192 260.4 77.4898 260.527 77.6567 260.633C78.3525 260.095 78.874 259.656 79.2228 258.705C79.5716 257.754 78.7399 255.335 77.8349 254.569Z" fill="#FFB61D"/>
<path fill-rule="evenodd" clip-rule="evenodd" d="M169.8 376.416C169.367 376.068 168.734 376.137 168.386 376.57C168.038 377.003 168.107 377.636 168.54 377.984C169.016 378.366 169.435 378.718 169.804 379.043C169.358 379.346 168.908 379.699 168.437 380.103L167.483 380.937C167.063 381.301 167.018 381.936 167.382 382.356C167.746 382.776 168.381 382.821 168.801 382.456L169.946 381.461C170.411 381.072 170.843 380.749 171.274 380.487C172.113 381.454 172.34 382.134 172.305 382.791L172.292 382.959L172.29 383.062C172.303 383.571 172.701 383.998 173.22 384.037C173.774 384.079 174.257 383.664 174.298 383.11L174.313 382.913C174.371 381.889 174.084 380.891 173.197 379.707C173.852 379.564 174.583 379.512 175.462 379.532C176.018 379.545 176.478 379.105 176.491 378.549C176.504 377.994 176.064 377.534 175.508 377.521C173.981 377.486 172.78 377.65 171.691 378.053C171.278 377.66 170.808 377.246 170.276 376.804L169.8 376.416Z" fill="#00160A"/>
<path fill-rule="evenodd" clip-rule="evenodd" d="M169.8 376.416C169.367 376.068 168.734 376.137 168.386 376.57C168.038 377.003 168.107 377.636 168.54 377.984C169.016 378.366 169.435 378.718 169.804 379.043C169.358 379.346 168.908 379.699 168.437 380.103L167.483 380.937C167.063 381.301 167.018 381.936 167.382 382.356C167.746 382.776 168.381 382.821 168.801 382.456L169.946 381.461C170.411 381.072 170.843 380.749 171.274 380.487C172.113 381.454 172.34 382.134 172.305 382.791L172.292 382.959L172.29 383.062C172.303 383.571 172.701 383.998 173.22 384.037C173.774 384.079 174.257 383.664 174.298 383.11L174.313 382.913C174.371 381.889 174.084 380.891 173.197 379.707C173.852 379.564 174.583 379.512 175.462 379.532C176.018 379.545 176.478 379.105 176.491 378.549C176.504 377.994 176.064 377.534 175.508 377.521C173.981 377.486 172.78 377.65 171.691 378.053C171.278 377.66 170.808 377.246 170.276 376.804L169.8 376.416Z" fill="#00160A"/>
<path fill-rule="evenodd" clip-rule="evenodd" d="M206.145 351.519L206.721 353.107L208.262 353.677C208.346 353.708 208.388 353.801 208.357 353.884C208.348 353.91 208.332 353.933 208.311 353.95L207.024 355.052L206.962 356.772C206.959 356.861 206.885 356.93 206.796 356.927C206.766 356.926 206.737 356.916 206.712 356.9L205.415 356.026C205.374 355.999 205.323 355.991 205.277 356.006L203.784 356.472C203.699 356.499 203.609 356.452 203.582 356.367C203.573 356.338 203.573 356.307 203.58 356.278L204.012 354.612L203.094 353.189C203.046 353.114 203.067 353.015 203.142 352.967C203.165 352.952 203.192 352.943 203.219 352.941L204.859 352.835L205.865 351.478C205.918 351.406 206.018 351.391 206.09 351.444C206.115 351.463 206.135 351.489 206.145 351.519Z" fill="#00160A"/>
<path fill-rule="evenodd" clip-rule="evenodd" d="M119.989 334.422L121.073 335.718L122.717 335.727C122.806 335.727 122.878 335.8 122.877 335.888C122.877 335.916 122.87 335.943 122.856 335.967L122.024 337.442L122.554 339.079C122.581 339.164 122.535 339.255 122.451 339.282C122.422 339.291 122.391 339.292 122.362 339.285L120.844 338.908C120.797 338.896 120.747 338.906 120.708 338.936L119.465 339.885C119.394 339.939 119.293 339.925 119.239 339.855C119.221 339.831 119.21 339.802 119.207 339.772L119.043 338.059L117.694 337.035C117.623 336.982 117.609 336.881 117.663 336.81C117.679 336.788 117.701 336.771 117.726 336.76L119.231 336.099L119.712 334.48C119.737 334.395 119.827 334.346 119.912 334.371C119.942 334.38 119.969 334.398 119.989 334.422Z" fill="#00160A"/>
<path fill-rule="evenodd" clip-rule="evenodd" d="M109.922 223.056L110.497 224.644L112.039 225.214C112.122 225.245 112.165 225.338 112.134 225.421C112.124 225.447 112.108 225.47 112.087 225.488L110.801 226.589L110.739 228.309C110.736 228.398 110.661 228.467 110.572 228.464C110.542 228.463 110.513 228.454 110.488 228.437L109.191 227.563C109.15 227.536 109.1 227.528 109.053 227.543L107.56 228.009C107.475 228.036 107.385 227.989 107.359 227.904C107.35 227.875 107.349 227.845 107.357 227.815L107.789 226.15L106.871 224.726C106.822 224.651 106.844 224.552 106.919 224.504C106.942 224.489 106.968 224.48 106.995 224.478L108.636 224.372L109.641 223.015C109.694 222.943 109.795 222.928 109.866 222.981C109.892 223 109.911 223.026 109.922 223.056Z" fill="#00160A"/>
<path fill-rule="evenodd" clip-rule="evenodd" d="M109.646 224.573L109.89 225.248L110.545 225.49C110.58 225.503 110.599 225.543 110.585 225.578C110.581 225.589 110.575 225.599 110.566 225.606L110.019 226.074L109.993 226.805C109.992 226.842 109.96 226.872 109.922 226.87C109.909 226.87 109.897 226.866 109.886 226.859L109.335 226.488C109.318 226.476 109.297 226.473 109.277 226.479L108.643 226.677C108.607 226.689 108.568 226.668 108.557 226.632C108.553 226.62 108.553 226.607 108.556 226.595L108.74 225.887L108.35 225.283C108.329 225.251 108.338 225.209 108.37 225.188C108.38 225.182 108.391 225.178 108.403 225.177L109.1 225.132L109.527 224.556C109.549 224.525 109.592 224.519 109.622 224.542C109.633 224.55 109.641 224.561 109.646 224.573Z" fill="#E7EAEE"/>
<path fill-rule="evenodd" clip-rule="evenodd" d="M22.6892 284.258L23.2648 285.846L24.8063 286.417C24.8896 286.447 24.9322 286.54 24.9013 286.623C24.8918 286.649 24.8759 286.672 24.855 286.69L23.5683 287.791L23.5063 289.511C23.5031 289.6 23.4285 289.669 23.3397 289.666C23.3097 289.665 23.2805 289.656 23.2556 289.639L21.9585 288.765C21.918 288.738 21.8673 288.73 21.8206 288.745L20.3279 289.212C20.2431 289.238 20.1528 289.191 20.1263 289.106C20.1173 289.077 20.1166 289.047 20.1241 289.018L20.5563 287.352L19.6381 285.928C19.5899 285.854 19.6114 285.754 19.6861 285.706C19.7091 285.691 19.7356 285.682 19.7629 285.68L21.4032 285.574L22.4086 284.217C22.4615 284.146 22.5623 284.131 22.6337 284.183C22.6591 284.202 22.6784 284.228 22.6892 284.258Z" fill="#00160A"/>
<path fill-rule="evenodd" clip-rule="evenodd" d="M102.509 151.572L102.985 151.96C103.518 152.402 105.472 154.543 105.885 154.936C106.973 154.532 108.175 154.367 109.702 154.402C110.257 154.415 110.697 154.876 110.684 155.431C110.672 155.986 110.211 156.426 109.656 156.413C108.776 156.393 108.045 156.446 107.389 156.589C108.277 157.773 108.565 158.771 108.506 159.794L108.492 159.991C108.45 160.545 107.967 160.961 107.413 160.919C106.894 160.88 106.497 160.453 106.483 159.943L106.486 159.84L106.498 159.672C106.533 159.016 106.306 158.336 105.467 157.369C105.037 157.631 104.604 157.953 104.14 158.343L102.994 159.338C102.575 159.702 101.94 159.657 101.576 159.238C101.212 158.818 101.257 158.183 101.676 157.819L102.631 156.985C103.101 156.58 103.551 156.228 103.997 155.924C103.385 154.179 100.747 152.159 101.095 151.726C101.443 151.293 102.076 151.224 102.509 151.572Z" fill="#00160A"/>
<path fill-rule="evenodd" clip-rule="evenodd" d="M287.314 281.805L288.606 282.892L290.227 282.616C290.314 282.601 290.397 282.659 290.412 282.747C290.417 282.774 290.415 282.802 290.406 282.828L289.842 284.425L290.648 285.946C290.69 286.024 290.66 286.121 290.581 286.163C290.555 286.177 290.525 286.184 290.495 286.181L288.935 286.073C288.886 286.07 288.838 286.089 288.805 286.125L287.746 287.275C287.686 287.341 287.584 287.345 287.518 287.285C287.496 287.264 287.48 287.238 287.472 287.209L287.014 285.55L285.507 284.777C285.428 284.736 285.397 284.639 285.437 284.56C285.45 284.536 285.468 284.515 285.491 284.5L286.858 283.587L287.05 281.909C287.061 281.821 287.14 281.758 287.229 281.768C287.26 281.771 287.29 281.784 287.314 281.805Z" fill="#00160A"/>
<path fill-rule="evenodd" clip-rule="evenodd" d="M307.741 220.127L308.033 221.79L309.451 222.62C309.528 222.665 309.554 222.764 309.509 222.84C309.495 222.864 309.476 222.884 309.452 222.898L307.994 223.759L307.634 225.442C307.615 225.529 307.53 225.585 307.443 225.566C307.413 225.56 307.386 225.545 307.365 225.524L306.239 224.439C306.204 224.405 306.155 224.389 306.107 224.395L304.556 224.595C304.468 224.607 304.387 224.544 304.376 224.456C304.372 224.426 304.376 224.396 304.389 224.369L305.104 222.803L304.447 221.242C304.412 221.16 304.451 221.066 304.533 221.031C304.558 221.021 304.585 221.017 304.613 221.02L306.246 221.2L307.472 220.038C307.537 219.977 307.639 219.979 307.7 220.044C307.721 220.067 307.736 220.096 307.741 220.127Z" fill="#00160A"/>
<path fill-rule="evenodd" clip-rule="evenodd" d="M276.941 151.733L277.232 153.397L278.651 154.227C278.727 154.272 278.753 154.37 278.708 154.447C278.695 154.471 278.675 154.49 278.651 154.504L277.193 155.366L276.833 157.049C276.815 157.136 276.729 157.191 276.642 157.172C276.613 157.166 276.586 157.152 276.564 157.131L275.438 156.045C275.403 156.011 275.355 155.995 275.306 156.001L273.755 156.202C273.667 156.213 273.586 156.151 273.575 156.063C273.571 156.033 273.576 156.003 273.588 155.975L274.303 154.41L273.646 152.848C273.611 152.767 273.65 152.672 273.732 152.638C273.757 152.627 273.785 152.623 273.812 152.626L275.446 152.806L276.671 151.644C276.736 151.583 276.838 151.586 276.899 151.65C276.921 151.673 276.935 151.702 276.941 151.733Z" fill="#00160A"/>
<path fill-rule="evenodd" clip-rule="evenodd" d="M381.338 175.677L381.952 175.668C382.644 175.664 383.271 175.68 383.84 175.716C384.414 174.707 385.228 173.809 386.421 172.854C386.854 172.507 387.487 172.577 387.835 173.01C388.182 173.444 388.112 174.077 387.678 174.424C386.991 174.974 386.465 175.484 386.055 176.015C387.496 176.351 388.358 176.932 388.971 177.753L389.086 177.913C389.41 178.364 389.308 178.993 388.856 179.317C388.433 179.621 387.855 179.549 387.517 179.167L387.453 179.087L387.354 178.95C386.959 178.425 386.348 178.05 385.084 177.848C384.923 178.326 384.798 178.851 384.693 179.448L384.455 180.946C384.368 181.495 383.852 181.869 383.304 181.781C382.755 181.694 382.381 181.178 382.469 180.63L382.664 179.377C382.764 178.765 382.882 178.206 383.029 177.686C382.539 177.675 381.991 177.675 381.381 177.688C380.825 177.7 380.365 177.259 380.354 176.704C380.342 176.149 380.782 175.689 381.338 175.677Z" fill="#00160A"/>
<path fill-rule="evenodd" clip-rule="evenodd" d="M295.139 238.816C294.923 239.261 294.478 239.866 293.971 240.432L294.338 240.874L294.762 241.4L294.857 241.506C294.899 241.549 294.932 241.576 294.957 241.584C295.104 241.617 295.198 241.762 295.166 241.911C295.134 242.056 294.989 242.151 294.842 242.118C294.707 242.105 294.231 241.877 293.683 241.358C293.583 241.265 293.485 241.157 293.386 241.041C293.021 241.391 292.656 241.689 292.347 241.867C291.892 242.133 291.515 242.129 291.345 241.995C291.178 241.863 291.039 241.455 291.385 240.677C291.441 240.536 291.601 240.471 291.741 240.527C291.88 240.583 291.947 240.741 291.892 240.883C291.837 241.027 291.821 241.163 291.812 241.271L291.987 241.17C292.048 241.133 292.112 241.09 292.171 241.039C292.387 240.856 292.629 240.633 292.874 240.39C292.549 239.949 292.222 239.435 291.97 238.851C291.847 238.567 291.755 238.268 291.669 237.954C291.607 237.777 291.7 237.583 291.877 237.52C292.053 237.458 292.248 237.551 292.31 237.727C292.586 238.437 292.959 239.06 293.334 239.597L293.459 239.773C293.872 239.309 294.233 238.835 294.408 238.467C294.504 238.267 294.747 238.181 294.948 238.276C295.15 238.374 295.236 238.616 295.139 238.816Z" fill="#E7EAEE"/>
<path fill-rule="evenodd" clip-rule="evenodd" d="M300.729 33.6742C301.348 33.6137 301.899 34.0667 301.959 34.6859C302.02 35.3051 301.567 35.856 300.948 35.9165C298.003 36.204 294.373 37.6783 291.141 40.2494C286.943 43.588 283.662 48.4991 281.728 55.0865C280.171 60.3938 280.695 67.5752 283.259 73.7268C286.176 80.7254 291.335 85.7228 298.301 87.5445C305.452 89.4146 311.649 89.0537 318.684 87.1335L319.332 86.952C319.537 86.8913 319.904 86.7805 320.365 86.6415L320.366 86.6411L320.367 86.6408L320.367 86.6407L320.369 86.6403L320.37 86.64C322.068 86.1275 325.032 85.2329 325.878 85.045C328.144 84.5418 329.651 84.7116 330.659 85.9616C331.049 86.446 330.973 87.1552 330.489 87.5456C330.035 87.9117 329.383 87.8677 328.981 87.4617L328.905 87.3757C328.607 87.0069 327.942 86.9168 326.568 87.2012L326.367 87.2444C325.621 87.4101 322.873 88.2388 321.16 88.7554L321.16 88.7555C320.496 88.9556 319.988 89.1089 319.811 89.1586C312.208 91.3031 305.496 91.7546 297.731 89.7242C290.037 87.7121 284.352 82.2053 281.179 74.5935C278.422 67.9783 277.86 60.2689 279.567 54.4521C281.63 47.4215 285.175 42.1154 289.738 38.4861C293.31 35.6452 297.35 34.0041 300.729 33.6742ZM307.917 39.6727C308.535 39.5992 309.096 40.0405 309.169 40.6583C309.242 41.2761 308.801 41.8365 308.183 41.9099C298.945 43.0077 291.1 49.4106 288.284 58.4489C287.331 61.5078 287.358 64.0553 287.99 65.0741L288.075 65.2022L288.081 65.2196L288.095 65.2104C288.365 65.0015 288.704 64.4415 289.001 63.5562L289.063 63.3615C291.959 54.0658 299.723 47.286 309.12 45.5201C309.731 45.4052 310.32 45.8077 310.435 46.4192C310.55 47.0306 310.147 47.6194 309.536 47.7343C301.07 49.3253 294.057 55.3688 291.327 63.6791L291.214 64.0316C290.193 67.31 287.862 68.7363 286.229 66.4895C285.035 64.8461 284.96 61.5442 286.133 57.7788C289.215 47.8844 297.804 40.8745 307.917 39.6727ZM320.499 53.0189C320.502 52.3968 319.999 51.8905 319.377 51.8881C308.386 51.8453 298.263 58.2247 293.66 68.4184C291.913 72.2864 291.561 75.8167 292.61 77.7095C294.018 80.2484 296.622 79.0642 298.126 75.7326L298.283 75.3909C302.325 66.775 310.696 61.175 320.048 60.5797C320.668 60.5402 321.14 60.0048 321.1 59.3839C321.061 58.763 320.525 58.2918 319.904 58.3313C309.606 58.9869 300.398 65.2285 296.073 74.8053L295.978 75.0097C295.502 76.0045 295.019 76.5896 294.675 76.7461L294.66 76.7548C294.657 76.7566 294.655 76.7582 294.654 76.7595L294.654 76.7595L294.654 76.7595C294.651 76.7617 294.649 76.763 294.648 76.7627C294.646 76.7623 294.645 76.759 294.643 76.7513C294.637 76.7342 294.624 76.6952 294.581 76.6171L294.528 76.5149C293.963 75.3099 294.272 72.5366 295.713 69.3457C299.948 59.9693 309.258 54.1016 319.369 54.141C319.991 54.1434 320.497 53.641 320.499 53.0189ZM324.57 64.3072C325.192 64.3096 325.695 64.8159 325.692 65.4381C325.69 66.0602 325.183 66.5626 324.561 66.5601C317.472 66.5325 310.945 70.6464 307.976 77.2204C307.096 79.1692 306.831 80.872 307.027 81.7593L307.052 81.8585L307.107 81.7906C307.247 81.6098 307.408 81.3471 307.574 81.0032L307.644 80.8509C310.78 73.9069 317.457 69.3811 324.924 68.9058C325.545 68.8662 326.081 69.3375 326.12 69.9584C326.16 70.5793 325.688 71.1147 325.067 71.1542C318.535 71.57 312.685 75.4685 309.84 81.4711L309.698 81.7781C308.535 84.3532 306.365 85.3401 305.185 83.2126C304.377 81.7546 304.638 79.1369 305.923 76.2932C309.26 68.9019 316.6 64.2762 324.57 64.3072ZM329.809 73.8033C329.812 73.1812 329.309 72.6749 328.687 72.6725C323.35 72.6517 318.434 75.7497 316.199 80.6997C315.317 82.6511 315.136 84.4739 315.734 85.5529C316.715 87.3221 318.507 86.507 319.372 84.5912L319.489 84.3399C321.288 80.5994 324.948 78.1726 329.034 77.9125C329.655 77.873 330.126 77.3376 330.087 76.7167C330.047 76.0959 329.512 75.6246 328.891 75.6641L328.603 75.6855C324.198 76.059 320.235 78.539 317.989 82.3683L317.91 82.5047L317.964 82.3467C318.044 82.1168 318.14 81.8757 318.252 81.6269C320.118 77.4942 324.222 74.9081 328.678 74.9254C329.301 74.9279 329.807 74.4255 329.809 73.8033Z" fill="#00160A"/>
<path fill-rule="evenodd" clip-rule="evenodd" d="M324.57 64.3073C325.193 64.3097 325.695 64.816 325.693 65.4381C325.69 66.0603 325.184 66.5627 324.562 66.5602C317.473 66.5326 310.945 70.6465 307.976 77.2205C307.096 79.1693 306.832 80.8721 307.028 81.7593L307.052 81.8586L307.107 81.7907C307.247 81.6098 307.409 81.3472 307.574 81.0033L307.645 80.851C310.781 73.907 317.457 69.3812 324.925 68.9059C325.546 68.8663 326.081 69.3376 326.121 69.9585C326.16 70.5794 325.689 71.1147 325.068 71.1543C318.536 71.5701 312.686 75.4686 309.84 81.4712L309.698 81.7782C308.535 84.3533 306.365 85.3402 305.186 83.2126C304.378 81.7547 304.639 79.137 305.923 76.2932C309.261 68.902 316.601 64.2763 324.57 64.3073Z" fill="#00160A"/>
<path d="M243.606 205.294C267.984 196.051 288.112 191.714 300.451 191.568C304.23 191.524 305.777 193.721 304.573 197.016C303.678 199.463 301.271 202.731 297.67 206.545C291.393 213.195 283.363 218.684 275.397 223.753C288.301 213.524 291.729 209.097 295.796 204.789L296.435 204.103C299.457 200.823 301.46 198.042 302.156 196.138L302.256 195.849C302.704 194.471 302.332 194.109 300.483 194.131C288.423 194.273 268.37 198.627 244.079 207.862C219.748 217.111 219.267 214.522 243.606 205.294Z" fill="white"/>
<path d="M138.582 161.554L138.724 161.977C139.704 164.896 140.733 167.79 141.91 170.951L142.368 172.178C142.179 172.285 141.934 172.395 141.666 172.489C141.281 172.624 140.895 172.709 140.607 172.726L140.516 172.728L140.392 172.554C139.427 171.165 138.36 168.848 137.635 166.569C137.248 165.355 136.991 164.249 136.901 163.407C136.865 163.064 136.857 162.778 136.876 162.562L136.893 162.421C136.898 162.386 136.899 162.369 136.891 162.365L136.926 162.345C137.126 162.228 137.633 161.981 138.383 161.644L138.582 161.554Z" fill="white"/>
<path fill-rule="evenodd" clip-rule="evenodd" d="M169.123 153.547C169.928 152.701 170.874 152.907 172.029 153.732L172.326 153.952L173.153 154.594C173.384 154.769 173.486 154.831 173.623 154.898C173.943 155.054 174.075 155.439 173.919 155.759C173.764 156.078 173.378 156.211 173.059 156.055L172.945 155.998C172.73 155.886 172.569 155.774 172.14 155.441L171.547 154.978C171.45 154.903 171.365 154.84 171.281 154.78C170.59 154.286 170.265 154.215 170.056 154.434C169.925 154.573 169.931 154.888 170.121 155.549L170.333 156.244C170.749 157.665 170.706 158.283 169.739 158.741C168.906 159.135 168.513 158.892 167.451 157.682L167.193 157.386C166.514 156.597 166.148 156.313 165.896 156.347C165.813 156.358 165.712 156.409 165.586 156.525C165.437 156.661 165.363 157.127 165.385 157.966L165.432 159.062C165.483 160.401 165.396 160.741 164.82 161.067C164.027 161.515 163.066 160.868 161.33 159.056C161.084 158.799 161.092 158.392 161.349 158.146C161.606 157.9 162.013 157.909 162.259 158.165C163.001 158.94 163.567 159.451 163.969 159.721L164.06 159.78L164.135 159.825L164.143 159.744L164.152 159.552C164.156 159.394 164.151 159.202 164.136 158.875L164.104 158.202C164.05 156.838 164.155 156.09 164.715 155.576C165.027 155.291 165.365 155.119 165.725 155.071C166.563 154.958 167.122 155.355 168.023 156.379L168.478 156.898C168.969 157.447 169.156 157.592 169.188 157.577C169.313 157.518 169.311 157.304 169.049 156.444L168.934 156.072C168.568 154.872 168.534 154.168 169.123 153.547Z" fill="#00160A"/>
<path fill-rule="evenodd" clip-rule="evenodd" d="M247.062 54.3427L246.448 54.3512C245.893 54.3631 245.452 54.8229 245.464 55.3782C245.471 55.714 245.642 56.0078 245.899 56.185L245.788 56.2524C245.311 56.538 245.157 57.1558 245.442 57.6322C245.728 58.1086 246.346 58.2632 246.822 57.9775L247.908 57.3252C247.86 57.559 247.816 57.8008 247.775 58.0515L247.579 59.3042C247.492 59.8527 247.866 60.3683 248.414 60.4556C248.963 60.543 249.479 60.1692 249.566 59.6206L249.803 58.1218C249.86 57.8015 249.922 57.502 249.992 57.2194C250.294 57.914 250.326 58.434 250.215 58.9152L250.173 59.0786L250.153 59.1795C250.077 59.6837 250.395 60.173 250.899 60.3017C251.438 60.4389 251.985 60.1138 252.122 59.5756L252.171 59.3839C252.329 58.7151 252.331 58.03 252.114 57.253C252.25 57.3668 252.364 57.4908 252.465 57.6243L252.563 57.7612L252.628 57.8417C252.965 58.2235 253.544 58.295 253.967 57.9912C254.418 57.6671 254.521 57.0386 254.197 56.5875L254.082 56.427C254.04 56.3719 253.998 56.3178 253.955 56.2649C254.476 56.3348 254.969 55.9883 255.074 55.4652C255.183 54.9205 254.829 54.3906 254.285 54.2816C253.348 54.0942 252.523 54.0058 251.757 54.0168C252.054 53.7162 252.395 53.4139 252.789 53.0984C253.222 52.7512 253.293 52.1182 252.945 51.6846C252.598 51.251 251.965 51.181 251.532 51.5282C250.804 52.1107 250.217 52.672 249.74 53.2502C249.587 53.061 249.425 52.8667 249.256 52.667L248.855 52.2023C248.489 51.7844 247.853 51.7425 247.435 52.1085C247.018 52.4746 246.976 53.11 247.342 53.5278C247.596 53.818 247.83 54.092 248.045 54.3512C247.733 54.3435 247.406 54.3406 247.062 54.3427Z" fill="#00160A"/>
<path fill-rule="evenodd" clip-rule="evenodd" d="M207.886 58.3827C207.664 58.1178 207.274 58.0953 207.015 58.3326C206.755 58.5699 206.725 58.977 206.947 59.2419C207.158 59.4932 207.346 59.7256 207.513 59.9412C207.115 60.0757 206.712 60.2583 206.277 60.4886L205.618 60.8447C205.329 60.9998 205.242 61.3472 205.424 61.6206C205.607 61.894 205.989 61.9899 206.279 61.8348L207.069 61.4103C207.481 61.1987 207.85 61.0429 208.216 60.9417C208.702 61.7364 208.779 62.2283 208.676 62.6711L208.649 62.776L208.636 62.8407C208.586 63.1641 208.778 63.4751 209.087 63.554C209.417 63.6381 209.756 63.4262 209.844 63.0806L209.875 62.9576C210.027 62.3154 209.966 61.6524 209.561 60.8086C209.878 60.8274 210.22 60.8768 210.607 60.9561C210.944 61.0252 211.265 60.8325 211.325 60.5259C211.385 60.2192 211.16 59.9146 210.823 59.8455C210.085 59.6941 209.46 59.6362 208.882 59.6704C208.669 59.3633 208.419 59.0338 208.13 58.6775L207.886 58.3827Z" fill="#E7EAEE"/>
<path fill-rule="evenodd" clip-rule="evenodd" d="M66.0525 215.859L66.6281 217.447L68.1695 218.018C68.2529 218.049 68.2954 218.142 68.2646 218.225C68.2551 218.251 68.2391 218.273 68.2183 218.291L66.9316 219.393L66.8696 221.113C66.8664 221.202 66.7918 221.271 66.703 221.268C66.673 221.267 66.6438 221.257 66.6189 221.24L65.3218 220.367C65.2813 220.339 65.2305 220.332 65.1839 220.347L63.6912 220.813C63.6064 220.84 63.5161 220.792 63.4896 220.708C63.4806 220.679 63.4799 220.648 63.4874 220.619L63.9196 218.953L63.0014 217.53C62.9532 217.455 62.9747 217.356 63.0494 217.307C63.0724 217.293 63.0989 217.284 63.1262 217.282L64.7665 217.176L65.7719 215.819C65.8248 215.747 65.9256 215.732 65.997 215.785C66.0224 215.804 66.0417 215.83 66.0525 215.859Z" fill="#00160A"/>
<path fill-rule="evenodd" clip-rule="evenodd" d="M81.6843 131.308L82.2599 132.896L83.8014 133.467C83.8847 133.498 83.9273 133.59 83.8964 133.674C83.8869 133.699 83.871 133.722 83.8501 133.74L82.5634 134.842L82.5014 136.562C82.4982 136.65 82.4236 136.72 82.3348 136.717C82.3048 136.715 82.2756 136.706 82.2507 136.689L80.9536 135.815C80.9131 135.788 80.8624 135.781 80.8157 135.795L79.323 136.262C79.2382 136.288 79.1479 136.241 79.1214 136.156C79.1124 136.128 79.1117 136.097 79.1192 136.068L79.5514 134.402L78.6332 132.979C78.5851 132.904 78.6065 132.804 78.6812 132.756C78.7043 132.741 78.7307 132.733 78.7581 132.731L80.3984 132.624L81.4037 131.267C81.4566 131.196 81.5574 131.181 81.6288 131.234C81.6543 131.253 81.6736 131.278 81.6843 131.308Z" fill="#00160A"/>
<path d="M92.3447 268.599C92.8877 268.264 93.5994 268.433 93.9345 268.976C94.2696 269.518 76.9731 281.566 70.1931 287.174L69.4047 287.831C65.5277 291.093 62.6349 293.952 60.9522 296.258C59.169 298.701 58.9623 300.086 59.9461 300.732C63.679 303.184 69.2004 304.657 77.3215 303.932L78.1563 303.854C81.2498 303.548 104.594 300.268 104.22 300.373L104.076 300.405C103.338 300.543 93.7422 303.073 90.4526 303.652L90.055 303.721C85.0272 304.591 81.1017 305.151 77.5847 305.465C68.9908 306.233 62.9494 305.469 58.6777 302.663C56.2127 301.044 56.6279 298.264 59.0859 294.896C61.0192 292.247 64.3103 289.041 68.7206 285.394C75.5913 279.711 85.156 273.036 92.3447 268.599Z" fill="white"/>
</svg>
