<svg width="365" height="368" viewBox="0 0 365 368" fill="none" xmlns="http://www.w3.org/2000/svg">
<path d="M290.546 339.904C328.752 343.239 397.936 290.83 344.719 213.394C289.643 123.669 383.672 59.4776 306.236 9.76554C250.105 -26.2686 182.636 51.5881 137.465 36.1314C41.1049 9.76554 -19.8727 107.171 22.6223 169.099C54.3768 215.375 -22.6382 247.172 8.28226 283.819C42.6981 324.608 69.9704 280.514 120.453 289.746C193.746 303.148 246.278 336.041 290.546 339.904Z" fill="#2067A1"/>
<path d="M217.905 23.3845L218.513 23.747L219.115 24.1131C227.597 29.3275 225.419 37.674 236.567 50.0759C260.713 76.938 283.8 104.811 305.756 133.602L307.488 135.877L307.99 136.541C316.162 147.355 319.757 154.306 319.959 162.645C320.108 168.813 326.437 172.957 321.848 177.734L321.6 177.989L321.576 178.011L321.5 178.094C320.408 179.267 319.186 180.308 317.853 181.195L317.496 181.427L317.385 181.505C311.767 185.336 305.151 186.927 298.982 185.752L298.652 185.686L298.384 185.628L298.35 185.864C292.098 227.09 279.354 267.324 260.733 304.633L260.167 305.762L259.586 306.913L259.252 307.566L258.912 308.221C257.184 311.508 255.932 313.325 254.061 314.993C251.446 317.325 248.131 318.625 244.04 319.154C241.144 319.528 238.418 319.524 233.817 319.261L233.009 319.214C214.541 318.093 195.998 318.1 177.518 319.233L175.786 319.342L174.355 319.436L174.146 319.459C171.35 319.756 168.814 319.969 166.388 320.102L165.784 320.133L165.107 320.164L164.983 320.174C162.105 320.431 159.23 320.714 156.358 321.025L151.462 321.579L147.34 322.051L145.526 322.249C144.966 322.309 144.441 322.362 143.929 322.413L141.99 322.593L141.854 322.696C141.785 322.745 141.716 322.793 141.645 322.841L141.428 322.979L141.202 323.112L140.472 323.508L139.982 323.142L139.841 323.031L139.707 322.912L139.581 322.787L139.256 322.81C132.212 323.299 126.362 323.119 120.843 322.064L120.343 321.966L119.858 321.866C107.353 319.218 96.9814 311.011 94.2648 300.307C84.0284 259.972 69.7079 220.674 51.5945 183.209L51.3482 182.702L51.2283 182.773C46.9326 185.207 41.5351 184.61 36.7812 181.525L36.5359 181.364L36.2867 181.194L36.2292 181.169C34.7383 180.508 33.4143 179.321 32.4702 177.829L32.3379 177.614L32.2443 177.407L32.2091 177.422C30.67 175.533 29.5309 173.414 28.8941 171.207L28.8023 170.875L28.7182 170.542C26.6793 162.075 29.3019 153.35 35.7219 142.282C37.5874 139.066 48.9271 120.101 64.135 111.1C80.8642 101.199 77.7492 102.076 81.343 98.9911C84.1254 95.4867 72.9564 75.3653 63.0934 65.2133C53.2304 55.0613 92.0528 44.7338 95.0711 45.8499C95.8621 46.1424 96.5922 46.5046 97.2671 46.9365L97.553 47.1259L97.5842 47.1477L97.6607 46.9514L97.8856 47.3644L97.9966 47.4467C99.362 48.4875 100.482 49.8512 101.413 51.5381L101.585 51.8581L101.728 52.1362C102.778 54.2179 104.821 55.2718 105.795 59.1587L106.456 61.848L106.645 62.6047L106.83 63.3261C107.593 66.2611 108.982 68.3368 109.834 70.1016L109.937 70.312L109.99 70.4164L110.228 70.101C124.31 51.5647 140.543 37.2341 161.262 26.6331L161.111 26.6364C158.821 26.6364 164.81 23.9381 179.96 18.5764L180.82 18.2749L181.708 17.9696C192.901 14.1623 206.152 16.4479 217.905 23.3845Z" fill="white"/>
<path d="M301.445 184.16L301.115 184.094L300.847 184.036L300.813 184.272C294.561 225.498 281.817 265.732 263.196 303.041L262.63 304.17L262.049 305.321L261.715 305.974C259.806 309.681 258.516 311.626 256.524 313.401C253.909 315.733 250.594 317.033 246.503 317.562C243.606 317.936 241.586 316.757 234.199 316.089C259.332 302.38 263.226 276.46 272.017 259.6C297.55 210.631 281.705 197.305 301.445 184.16Z" fill="#E7EAEE"/>
<path d="M189.033 364.577C188.704 365.357 187.643 365.654 186.995 365.146C187.389 364.596 187.801 364.029 188.377 363.708C188.952 363.386 189.741 363.385 190.182 363.893C189.842 364.143 189.502 364.392 189.163 364.642L189.033 364.577Z" fill="#00160A"/>
<path d="M189.265 367.106C188.509 367.174 187.752 367.242 186.995 367.309C187.326 366.887 187.658 366.466 187.989 366.044C188.423 366.025 188.897 366.015 189.247 366.237C189.598 366.46 189.673 367.01 189.282 367.174L189.265 367.106Z" fill="#00160A"/>
<path d="M214.033 336.08C213.685 335.916 213.706 335.455 213.917 335.162C214.128 334.869 214.467 334.658 214.663 334.357C214.873 334.036 214.897 333.651 214.916 333.281C214.978 332.09 215.039 330.899 215.101 329.707C215.706 330.689 215.825 331.892 215.42 332.95C216.034 332.858 216.697 333.167 216.95 333.664C216.042 334.526 215.067 335.334 214.033 336.08Z" fill="#00160A"/>
<path d="M213.047 335.443C212.064 335.246 211.272 334.338 211.214 333.342C211.89 333.596 212.652 333.095 212.979 332.453C213.306 331.811 213.327 331.066 213.426 330.353C213.65 328.731 214.314 327.171 215.328 325.883C215.951 326.882 215.712 328.325 214.799 329.072C213.395 330.219 214.654 332.757 213.539 334.184C213.237 334.571 212.753 335.05 213.047 335.443Z" fill="#00160A"/>
<path d="M102.229 95.3544C97.9833 99.9356 90.5495 101.926 85.2321 98.6375C80.8809 95.9468 79.0011 90.7264 76.9394 86.0552C74.8219 81.2574 72.2171 76.6734 69.1775 72.396C67.1558 69.5508 64.268 66.551 60.8027 67.0302C61.4577 65.8934 63.0616 65.6041 64.2982 66.0511C65.5347 66.4981 66.4788 67.4948 67.3425 68.4835C71.6923 73.4625 75.2696 79.1105 77.9085 85.1656C79.2066 88.1441 80.2949 91.2496 82.1309 93.9324C83.9668 96.6152 86.7283 98.8881 89.9692 99.2262C92.786 99.5201 95.5242 98.3419 98.1098 97.1899C99.483 96.5781 100.856 95.9662 102.229 95.3544Z" fill="#00160A"/>
<path d="M149.698 359.051C154.01 356.981 158.927 356.785 163.691 356.625C169.934 356.415 176.257 356.212 182.353 357.604C184.45 358.082 186.913 359.253 186.986 361.443C187.059 363.633 186.693 365.837 185.915 367.879C184.976 366.142 182.549 366.208 180.622 366.487C170.36 367.978 159.805 368.851 149.707 366.463C148.518 366.182 147.225 365.774 146.582 364.716C145.948 363.673 146.169 362.258 146.855 361.25C147.541 360.242 148.609 359.574 149.698 359.051ZM161.727 366.027C158.455 365.776 155.191 365.434 151.938 365.003C150.983 364.877 149.993 364.729 149.186 364.194C148.378 363.658 147.808 362.618 148.107 361.685C147.16 361.878 146.923 363.291 147.493 364.087C148.063 364.882 149.072 365.186 150.012 365.41C160.181 367.829 170.8 366.655 181.174 365.449C183.254 365.207 185.871 364.439 186.06 362.313C186.255 360.109 183.628 358.896 181.494 358.496C172.821 356.87 163.9 357.503 155.138 358.522C153.798 358.677 152.426 358.852 151.225 359.478C150.024 360.104 149.009 361.283 148.946 362.658C152.006 365.022 156.312 364.198 160.09 364.891C160.782 365.018 161.589 365.324 161.727 366.027Z" fill="#00160A"/>
<path d="M151.779 273.755C152.474 274.487 152.776 275.562 152.445 276.492C152.114 277.422 151.112 278.134 150.069 278.08C149.026 278.027 148.079 277.138 148.119 276.158C148.172 274.876 148.521 273.25 149.864 273.01C150.574 272.883 151.297 273.249 151.779 273.755ZM149.513 275.606C148.985 276.288 150.049 277.294 150.882 276.981C151.716 276.668 151.958 275.584 151.579 274.82C151.459 274.579 151.287 274.354 151.048 274.212C150.268 273.748 149.098 274.681 149.459 275.479L149.513 275.606Z" fill="#00160A"/>
<path d="M184.677 346.292C184.388 346.095 184.098 345.897 183.809 345.7C184.66 343.682 184.793 341.369 184.18 339.267C186.832 340.424 184.215 345.724 186.826 346.974C186.983 344.548 188.894 342.52 191.101 341.515C193.308 340.509 195.787 340.333 198.205 340.171C207.445 339.553 216.905 338.957 225.804 341.524C227.514 342.017 229.472 342.955 229.68 344.728C229.886 346.493 228.182 347.881 226.542 348.552C223.906 349.632 221.006 349.847 218.161 349.967C210.159 350.306 202.131 350.002 194.177 349.058C191.963 348.796 189.551 348.378 188.091 346.687C187.057 347.829 185.209 348.122 183.875 347.355C184.142 347.001 184.41 346.647 184.677 346.292ZM192.398 342.181C191.76 342.305 191.059 342.479 190.692 343.017C190.2 343.741 190.599 344.795 191.307 345.307C192.015 345.819 192.926 345.93 193.794 346.026C200.212 346.731 206.63 347.437 213.048 348.143C206.932 348.633 200.749 348.281 194.728 347.098C192.863 346.732 190.92 346.238 189.534 344.933C189.032 345.408 189.212 346.305 189.721 346.772C190.23 347.24 190.945 347.389 191.624 347.513C202.066 349.419 212.8 349.707 223.328 348.365C224.906 348.164 226.617 347.855 227.67 346.66C228.724 345.465 228.476 343.115 226.925 342.758C215.624 340.156 203.779 339.958 192.398 342.181Z" fill="#00160A"/>
<path d="M148.651 252.852C148.297 253.25 148.544 253.88 148.727 254.388C149.116 255.467 149.121 256.649 149.121 257.802C149.12 260.765 149.12 263.728 149.12 266.69C149.12 267.233 148.967 267.955 148.446 267.977C148.428 264.395 148.41 260.814 148.391 257.233C148.384 255.865 148.35 254.402 147.595 253.282C147.13 252.593 148.186 251.691 148.928 252.023C149.671 252.355 149.974 253.273 150.13 254.099C150.464 255.871 150.5 257.686 150.535 259.491C150.579 261.745 150.622 263.998 150.666 266.251C150.684 267.163 150.507 268.345 149.649 268.523C150.053 265.562 150.038 262.559 150.022 259.569C150.01 257.241 149.948 254.747 148.651 252.852Z" fill="#00160A"/>
<path d="M146.552 324.057C147.1 324.943 147.647 325.83 148.195 326.716C148.165 324.992 148.92 323.268 150.215 322.107C149.59 323.506 149.404 325.092 149.689 326.594C150.519 325.2 151.085 323.654 151.348 322.059C151.458 323.229 151.568 324.399 151.678 325.57C154.424 324.252 157.564 324.045 160.613 323.861C163.522 323.685 166.431 323.51 169.34 323.334C178.337 322.79 187.37 322.247 196.356 322.955C199.076 323.17 201.904 323.54 204.17 325.037C205.78 326.102 207.075 327.964 206.681 329.834C206.128 332.457 202.891 333.415 200.204 333.843C192.217 335.116 184.183 336.105 176.123 336.807C166.362 337.658 156.126 338.013 147.197 334.04C145.832 333.432 144.415 332.627 143.839 331.267C143.264 329.907 144.099 327.949 145.596 327.953C145.321 326.975 144.595 326.129 143.66 325.7C144.776 325.068 146.424 325.877 146.584 327.133C146.573 326.108 146.562 325.082 146.552 324.057ZM151.105 332.919C155.802 333.585 160.498 334.25 165.195 334.916C159.238 335.323 153.207 334.665 147.485 332.981C150.644 334.607 154.112 335.65 157.655 336.039C160.314 336.332 162.999 336.259 165.673 336.149C178.178 335.635 190.65 334.316 202.981 332.205C205.342 331.801 205.821 328.291 204.235 326.524C202.648 324.757 200.047 324.346 197.661 324.129C186.267 323.093 174.794 323.973 163.387 324.853C158.843 325.203 154.246 325.564 149.924 326.987C148.463 327.468 146.806 328.389 146.778 329.904C146.743 331.815 149.183 332.647 151.105 332.919ZM145.423 328.941C144.504 329.279 144.453 330.645 145.068 331.396C145.49 331.912 146.132 332.247 146.803 332.301C145.891 331.595 145.519 330.288 145.924 329.218C145.857 329.022 145.627 328.895 145.423 328.941H145.423Z" fill="#00160A"/>
<path d="M177.66 228.386C177.869 228.3 178.079 228.583 178.072 228.849C178.065 229.114 177.92 229.341 177.782 229.549C177.355 230.189 176.842 230.885 176.16 230.92C176.158 229.813 176.79 228.745 177.66 228.386Z" fill="#00160A"/>
<path d="M210.958 245.936C198.331 253.274 185.672 260.628 172.308 266.513C170.153 267.463 167.718 268.384 165.507 267.574C163.954 267.005 162.818 265.678 161.813 264.363C158.321 259.793 155.504 254.708 153.483 249.322C152.975 247.97 152.511 246.557 152.587 245.115C152.664 243.672 153.392 242.18 154.704 241.58C158.136 240.012 161.568 238.444 165 236.876C165.555 236.622 166.131 236.352 166.507 235.872C166.949 235.307 167.038 234.551 167.112 233.837C167.661 228.476 168.211 223.114 168.76 217.753C168.895 216.432 169.102 214.971 170.122 214.123C171.142 213.274 173.173 213.804 173.093 215.13C173.04 215.996 173.905 216.6 174.662 217.022C178.698 219.268 182.734 221.514 186.77 223.76C187.527 224.182 188.446 224.61 189.217 224.215C192.643 222.463 196.137 220.844 199.689 219.364C200.888 218.865 202.223 218.375 203.453 218.792C204.445 219.127 205.155 219.987 205.79 220.82C209.452 225.628 212.475 230.924 214.752 236.525C215.363 238.028 215.929 239.664 215.555 241.243C215.035 243.439 212.907 244.803 210.958 245.936ZM154.081 246.555C155.341 251.01 157.582 255.184 160.597 258.694C162.16 260.513 164.032 262.214 166.352 262.813C169.262 263.564 172.299 262.46 175.067 261.291C183.349 257.794 191.298 253.561 199.234 249.334C203.84 246.88 208.447 244.427 213.053 241.973C213.684 241.637 214.37 241.237 214.585 240.556C214.759 240.004 214.576 239.41 214.385 238.864C212.264 232.78 209.128 227.053 205.145 221.991C204.427 221.078 203.597 220.133 202.464 219.878C201.293 219.614 200.106 220.155 199.027 220.684C184.548 227.773 170.18 235.089 155.93 242.628C155.134 243.049 154.275 243.541 153.962 244.387C153.707 245.078 153.881 245.846 154.081 246.555ZM212.961 243.186C210.367 244.58 207.774 245.975 205.181 247.369C195.21 252.731 185.223 258.1 174.814 262.55C171.272 264.065 166.913 265.392 163.817 263.099C162.197 261.9 161.271 259.898 159.552 258.849C161.407 262.483 164.096 266.648 168.173 266.568C169.627 266.54 171.001 265.937 172.326 265.336C186.387 258.96 199.98 251.549 212.961 243.186ZM173.078 217.846C172.621 217.934 172.382 218.422 172.086 218.781C171.789 219.141 171.146 219.363 170.913 218.959C171.006 218.549 171.098 218.139 171.19 217.73C171.041 217.48 170.64 217.511 170.434 217.716C170.229 217.922 170.167 218.227 170.116 218.514C169.189 223.713 168.528 228.959 168.139 234.226C168.111 234.597 168.129 235.052 168.457 235.226C169.527 234.746 169.411 233.227 169.283 232.06C168.985 229.35 169.637 226.496 171.308 224.342C172.979 222.189 175.708 220.825 178.423 221.043C178.727 220.791 178.373 220.321 178.04 220.109C176.705 219.263 175.287 218.548 173.813 217.978C173.578 217.887 173.326 217.798 173.078 217.846ZM173.13 229.086C172.971 230.066 172.856 231.362 171.887 231.573C171.699 232.245 172.867 232.551 173.332 232.03C173.796 231.509 173.752 230.729 173.812 230.034C173.978 228.134 175.206 226.362 176.925 225.54C178.644 224.719 180.791 224.878 182.371 225.943C183.202 226.504 184.31 227.302 185.046 226.622C185.494 226.209 185.421 225.437 185.039 224.963C184.657 224.489 184.058 224.251 183.475 224.077C181.397 223.456 179.096 223.419 177.101 224.273C175.107 225.126 173.478 226.942 173.13 229.086ZM182.317 222.413C179.542 221.293 176.211 221.678 173.765 223.403C171.318 225.128 169.833 228.138 169.951 231.132C169.979 231.823 170.085 232.508 170.192 233.192C170.248 233.555 170.406 234.012 170.773 234.016C171.259 234.02 171.299 233.306 171.205 232.829C170.697 230.243 171.486 227.435 173.265 225.493C175.044 223.55 177.771 222.522 180.388 222.807C181.075 222.881 181.918 222.978 182.317 222.413ZM174.778 231.568C177.047 231.547 178.568 229.354 180.086 227.667C180.208 227.531 180.343 227.391 180.52 227.345C180.767 227.281 181.049 227.452 181.109 227.7C180.851 227.995 180.594 228.289 180.337 228.583C181.259 228.774 182.28 228.242 182.652 227.375C181.26 225.951 178.906 225.585 177.148 226.521C175.39 227.457 174.377 229.616 174.778 231.568ZM170.782 216.281C171.457 216.439 172.216 216.046 172.48 215.405C171.78 214.749 170.45 215.046 170.095 215.937C170.312 216.073 170.53 216.21 170.748 216.347L170.782 216.281ZM186.041 224.995C185.831 225.506 186.719 225.965 187.047 225.52C187.375 225.076 186.789 224.361 186.272 224.553C186.094 224.618 185.952 224.753 185.816 224.884L186.041 224.995Z" fill="#00160A"/>
<path d="M248.386 258.288C245.601 256.441 244.7 252.817 244.194 249.514C242.835 240.66 242.719 231.616 243.848 222.73C244.017 221.407 244.243 220.015 245.089 218.985C246.643 217.094 249.502 217.193 251.948 217.308C258.406 217.61 264.914 216.846 271.127 215.056C272.164 214.757 273.277 215.468 273.799 216.413C274.321 217.357 274.393 218.476 274.453 219.553C274.779 225.394 275.106 231.235 275.432 237.076C275.71 242.05 275.898 247.392 273.237 251.603C269.786 257.063 262.709 258.846 256.278 259.455C253.576 259.711 250.648 259.788 248.386 258.288ZM249.168 218.287C248.45 218.338 247.711 218.429 247.089 218.789C245.93 219.46 245.459 220.872 245.146 222.173C243.996 226.956 243.726 231.949 244.354 236.828C249.262 237.064 254.192 236.865 259.066 236.235C259.337 236.2 259.622 236.158 259.84 235.992C260.237 235.689 260.261 235.11 260.245 234.611C260.125 230.806 259.819 227.007 259.328 223.231C259.175 222.059 258.967 220.807 258.154 219.949C257.426 219.181 256.344 218.874 255.306 218.669C253.289 218.272 251.219 218.143 249.168 218.287ZM254.568 256.383C255.958 256.284 257.593 256.029 258.217 254.784C258.436 254.345 258.489 253.844 258.538 253.356C258.895 249.778 259.253 246.2 259.611 242.623C259.668 242.052 259.713 241.429 259.397 240.95C258.793 240.034 257.413 240.269 256.358 240.573C252.622 241.652 248.747 242.251 244.859 242.35C243.823 244.97 245.305 247.838 245.679 250.63C245.8 251.534 245.806 252.468 246.131 253.319C246.705 254.823 248.203 255.82 249.763 256.215C251.324 256.61 252.962 256.498 254.568 256.383ZM267.337 251.766C265.365 254.065 261.868 254.995 260.654 257.769C268.383 257.181 274.932 249.747 274.54 242.007C274.154 234.394 273.768 226.781 273.383 219.168C273.352 218.574 273.316 217.957 273.025 217.439C272.384 216.297 270.794 216.105 269.519 216.4C268.243 216.695 267.035 217.336 265.726 217.369C269.49 219.573 269.917 224.748 269.906 229.109C269.901 231.088 269.896 233.067 269.89 235.047C270.853 234.113 272.71 234.821 273.04 236.12C273.371 237.42 272.392 238.81 271.116 239.225C269.181 239.854 269.186 242.529 269.284 244.562C269.406 247.108 268.997 249.831 267.337 251.766ZM263.793 217.881C263.134 217.798 262.467 217.895 261.81 217.992C261.122 218.093 260.435 218.195 259.747 218.296C261.922 220.287 263.048 223.202 263.53 226.111C264.012 229.02 263.921 231.989 264.063 234.934C264.076 235.191 264.11 235.485 264.324 235.629C264.49 235.741 264.709 235.72 264.908 235.694C265.803 235.579 266.699 235.464 267.594 235.349C267.814 235.321 268.047 235.286 268.213 235.14C268.421 234.957 268.463 234.656 268.492 234.381C268.911 230.418 269.318 226.326 268.146 222.518C267.487 220.373 266.019 218.162 263.793 217.881ZM258.286 257.711C259.521 257.188 260.712 256.381 261.289 255.171C261.703 254.301 261.761 253.309 261.811 252.347C262.102 246.795 262.393 241.244 262.685 235.692C262.989 229.887 263.088 223.444 259.287 219.043C262.299 229.466 261.122 240.58 259.92 251.363C259.632 253.944 258.762 257.164 256.19 257.529C253.674 257.447 251.159 257.366 248.643 257.284C251.578 258.849 255.224 259.011 258.286 257.711ZM268.368 243.682C268.407 242.613 268.445 241.544 268.484 240.474C266.796 240.389 265.095 240.59 263.474 241.067C263.095 245.074 262.91 249.099 262.917 253.124C262.918 253.207 262.919 253.292 262.954 253.367C263.092 253.656 263.528 253.519 263.795 253.343C264.698 252.748 265.613 252.141 266.323 251.325C268.088 249.292 268.271 246.372 268.368 243.682ZM245.132 241.634C249.056 240.916 252.979 240.198 256.903 239.48C257.855 239.305 258.954 239.168 259.684 239.803C259.887 239.28 260.094 238.725 260.004 238.172C259.913 237.618 259.403 237.091 258.852 237.196C254.814 237.969 250.666 238.162 246.573 237.77C245.645 237.68 244.694 238.276 244.368 239.149C244.043 240.022 244.372 241.094 245.132 241.634ZM270.133 235.782C268.32 236.175 266.508 236.568 264.695 236.96C264.425 237.019 264.136 237.088 263.951 237.294C263.721 237.551 263.725 237.936 263.743 238.28C263.774 238.868 263.804 239.456 263.835 240.044C265.722 239.628 267.609 239.211 269.496 238.795C270.261 238.626 271.075 238.43 271.609 237.857C272.143 237.284 272.194 236.203 271.511 235.82C271.101 235.589 270.592 235.683 270.133 235.782Z" fill="#00160A"/>
<path d="M220.454 22.1101L221.062 22.4725C229.83 27.7535 236.628 34.1958 248.038 46.8895C272.184 73.7515 295.271 101.624 317.228 130.416L318.959 132.691L319.462 133.354C327.634 144.169 331.229 151.119 331.431 159.459C331.58 165.626 328.986 171.682 324.396 176.46L324.149 176.715L324.125 176.736L324.048 176.82C322.957 177.992 321.735 179.033 320.402 179.921L320.045 180.152L319.934 180.231C314.316 184.061 307.7 185.653 301.531 184.477L301.201 184.412L300.933 184.354L300.899 184.59C294.647 225.815 281.903 266.049 263.282 303.358L262.716 304.488L262.135 305.639L261.801 306.292C259.892 309.998 258.602 311.943 256.61 313.719C253.995 316.051 250.68 317.351 246.589 317.879C243.692 318.253 240.967 318.25 236.366 317.987L235.558 317.939C217.09 316.819 198.547 316.826 180.067 317.958L178.335 318.068L176.904 318.162L176.695 318.185C173.899 318.481 171.363 318.695 168.937 318.827L168.332 318.859L167.656 318.889L167.532 318.9C164.654 319.156 161.779 319.44 158.907 319.751L154.011 320.305L149.889 320.777C148.577 320.923 147.502 321.038 146.478 321.138C134.767 321.609 127.071 321.493 123.392 320.79L122.891 320.691L122.407 320.591C109.901 317.943 99.5302 309.737 96.8137 299.033C86.5772 258.698 72.2568 219.4 54.1433 181.935L53.897 181.428L53.7771 181.499C49.4815 183.933 44.0839 183.336 39.33 180.251L39.0847 180.089L38.8356 179.919L38.778 179.895C37.2871 179.234 35.9632 178.046 35.019 176.554L34.8867 176.339L34.8159 176.218L34.7579 176.147C33.2188 174.258 32.0797 172.139 31.4429 169.932L31.3512 169.601L31.267 169.268C29.2282 160.801 31.8507 152.076 38.2707 141.008C49.9568 120.86 64.3175 105.728 81.4416 97.249L81.9614 96.9941L82.8955 98.6585C67.773 108.365 54.6644 121.196 44.6367 136.108C37.7611 146.332 33.981 155.728 33.9692 164.667L33.9712 165.073L33.9765 165.409L33.9937 165.377C38.3066 156.894 45.5138 149.818 57.0197 141.423L57.5155 141.062L57.9773 140.728C70.5498 131.661 84.2444 123.109 100.071 114.268L102.194 113.087C113.896 106.609 123.85 101.445 143.257 91.6757L163.512 81.4792C169.074 78.6629 173.241 76.5231 177.91 74.0899L179.086 73.4726C188.595 68.4445 195.808 63.7126 201.506 58.3594C208.845 51.4656 213.028 43.994 213.647 35.6209C214.148 28.8567 211.642 22.4481 206.854 19.45C202.201 16.5363 196.223 16.7508 187.899 19.2026C157.89 28.0421 131.013 47.1838 112.849 72.6541C111.731 74.2219 112.493 75.6448 112.849 76.4928C115.181 82.0406 113.755 88.2761 110.999 93.6234L110.846 93.9139L108.684 97.9412L110.429 88.3043C110.274 72.6541 107.342 64.0313 100.858 50.9835L100.585 50.4409L100.426 50.1294L100.32 50.3379C97.3045 56.134 91.5124 60.6516 84.4462 63.1367L84.0795 63.2634L83.7286 63.3806C77.8688 65.3043 72.8135 65.87 62.5509 66.1478L60.1229 66.2068L59.8325 65.7597C58.0715 63.0485 59.789 59.6714 63.0788 57.0062C70.0689 51.3429 78.2595 47.1711 86.9507 44.8474C91.3378 43.6743 94.6016 43.4593 97.6199 44.5755C98.4109 44.8679 99.141 45.2301 99.8159 45.6621L100.102 45.8515L100.133 45.8733L100.21 45.677L100.434 46.09L100.545 46.1723C101.911 47.2131 103.031 48.5767 103.962 50.2636L104.134 50.5837L104.277 50.8617C105.327 52.9435 105.971 54.938 106.945 58.8249L107.606 61.5141L107.795 62.2709C108.636 65.5955 109.353 67.8476 110.274 69.7536L110.377 69.964L110.429 70.0684L110.668 69.753C128.858 45.8078 154.16 27.3347 182.508 17.302L183.368 17.0005L184.257 16.6952C195.449 12.8879 208.7 15.1735 220.454 22.1101ZM172.114 184.716C160.34 185.338 148.799 190.607 140.385 199.134C136.574 202.996 134.12 206.851 133.216 210.92L133.137 211.293C132.608 213.889 132.645 216.27 133.096 220.951L142.769 317.737C142.844 318.491 142.934 319.022 143.071 319.424L143.106 319.521L143.778 319.465L143.87 319.38C145.019 318.268 145.784 316.571 146.016 314.711L146.05 314.402L146.057 314.327C146.214 312.523 146.031 311.003 145.396 307.808L145.216 306.911L144.946 305.535C143.016 295.484 142.091 286.256 140.944 268.993L140.584 263.538C139.099 241.469 137.877 231.211 134.703 218.832C133.27 213.245 134.932 206.908 138.821 201.876C142.116 197.614 146.796 194.27 152.857 191.45C160.21 188.029 167.865 186.127 175.35 186.002C181.394 185.901 187.39 186.85 195.721 188.918L196.524 189.12C203.381 190.871 207.434 192.578 210.876 195.715C214.336 198.869 216.571 203.099 218.634 209.365C223.203 223.241 224.955 238.535 224.7 256.96L224.663 259.096C224.54 265.002 224.266 270.516 223.691 279.435L222.861 292.056C222.467 298.215 222.268 302.006 222.106 306.469L222.088 307.009C222.021 309.448 222.158 310.748 222.726 312.041C223.286 313.316 224.381 314.264 225.504 314.512L225.66 314.541L226.342 268.275C226.593 249.442 226.425 240.35 225.342 229.404L225.307 229.054C224.723 223.229 223.954 218.429 222.803 213.938C222.219 211.662 221.521 209.416 220.711 207.21C218.422 200.975 215.624 196.394 211.774 193.284C207.439 189.783 202.76 188.312 193.126 186.697L192.263 186.554C182.253 184.916 177.707 184.421 172.114 184.716ZM147.633 316.407L147.627 316.431C147.362 317.435 146.959 318.381 146.427 319.223L148.465 319.01C149.052 318.947 149.683 318.876 150.383 318.797L153.801 318.404C153.545 318.371 153.29 318.337 153.035 318.301L152.419 318.211L151.623 318.09L151.605 317.217L151.519 317.268C150.755 317.691 149.909 317.968 149.04 318.072L148.822 318.094L147.96 318.167L147.633 316.407ZM119.032 317.17L118.97 317.255C118.873 317.382 118.762 317.496 118.641 317.599C119.992 318.044 121.382 318.42 122.803 318.721C123.26 318.817 123.719 318.908 124.182 318.992C122.513 318.536 120.876 317.965 119.287 317.281L119.032 317.17ZM172.455 142.023C132.665 144.211 91.8584 154.722 50.6025 172.514L49.1769 173.132L50.639 173.819C53.9749 175.387 55.8645 178.068 58.3511 183.521L62.2744 192.223C69.5215 208.356 73.7541 218.173 78.09 229.123C84.2068 244.57 88.9122 258.6 92.4143 272.316L94.3173 279.915C94.5587 280.866 94.7798 281.724 94.9993 282.559L95.2898 283.654C97.3179 291.214 99.2433 296.72 101.758 301.595C104.977 307.836 108.992 312.515 114.179 315.701C115.616 316.583 117.371 316.531 117.547 315.837L117.558 315.775L117.706 314.442L118.917 315.016C125.246 318.013 132.479 319.072 139.403 318.035L139.782 317.975L130.274 223.364L130.184 222.459C129.576 216.29 129.582 212.787 130.572 209.049C131.881 204.102 135.033 199.564 139.675 195.315C147.765 187.91 158.246 183.167 169.148 181.978C176.45 181.181 183.829 181.812 194.072 183.696L194.966 183.862C202.894 185.367 207.778 186.962 212.218 189.995C217.897 193.872 221.81 199.698 224.348 207.334C226.364 213.401 227.442 220.198 228.088 229.06C230.085 256.442 230.085 283.97 228.088 311.352C227.9 313.941 231.31 315.688 235.868 315.9L236.097 315.91L236.739 315.931L237.514 315.954C245.42 316.15 249.941 315.337 253.552 312.338C255.529 310.697 256.848 308.747 258.889 304.859L259.051 304.548C277.473 269.196 290.14 230.853 296.405 191.485L296.593 190.291C297.275 185.909 298.01 182.829 299.208 180.083C300.746 176.559 302.923 174.093 305.942 172.847L306.189 172.749L306.481 172.636L306.352 172.538C303.845 170.628 300.85 168.842 296.937 166.809L296.068 166.361C259.643 147.734 216.718 139.59 172.455 142.023ZM174.278 189.018C167.905 189.27 161.333 191.003 154.662 194.02C145.051 198.366 138.571 204.724 137.604 212.292C137.542 212.779 137.502 213.275 137.484 213.783L137.473 214.154C137.43 216.307 137.707 218.252 138.469 221.797L139.06 224.48C140.999 233.39 142.043 242.09 143.08 255.739L143.871 266.485C145.557 289.041 146.914 301.769 149.429 315.597L149.509 316.035L149.639 315.999C150.405 315.766 151.115 315.344 151.678 314.778L151.816 314.633L153.429 312.864L153.501 316.435L153.906 316.49C157.926 317.019 162.133 317.177 166.724 317.014L167.49 316.984L168.911 316.86C170.846 316.695 172.783 316.541 174.719 316.4L176.697 316.261L178.266 316.089C180.317 315.856 182.279 315.61 186.028 315.124L189.287 314.707C199.667 313.397 205.07 312.952 211.328 313.082L212.174 313.103L214.568 313.185L215.212 313.198C216.875 313.22 218.127 313.133 219.265 312.876L219.372 312.851L219.353 311.498C219.282 304.924 219.498 298.279 220.013 289.049L220.451 281.629L220.867 274.72C221.187 269.223 221.35 265.84 221.484 261.859C222.172 241.302 220.708 225.467 215.939 211.028C213.771 204.463 211.3 200.034 207.596 197.046C204.389 194.458 200.752 193.128 193.946 191.562L192.953 191.336C184.958 189.531 179.718 188.803 174.278 189.018ZM227.566 314.964L227.556 315.611L228.355 315.646C228.067 315.434 227.803 315.206 227.566 314.964ZM221.295 313.443L221.312 314.279L220.623 314.492C219.03 314.984 217.425 315.14 215.176 315.11L214.332 315.091L212.401 315.023L212.12 315.014C208.895 314.922 205.955 314.979 202.501 315.225C209.357 315.143 216.214 315.215 223.065 315.44C222.361 314.923 221.751 314.237 221.295 313.443ZM307.914 173.798L307.107 174.405C304.967 176.016 303.248 178.185 302.156 180.631L302.075 180.818L302.11 180.826C304.93 181.418 306.574 181.455 308.133 180.812L308.279 180.75C310.315 179.852 311.294 177.061 310.031 175.774C309.429 175.159 308.805 174.571 308.15 174.001L307.914 173.798ZM50.2789 180.403L49.3037 180.739C48.8951 180.877 48.5238 180.992 48.1818 181.084C49.7637 181.05 51.2838 180.671 52.6631 179.929C52.1108 179.869 51.4024 180.024 50.2789 180.403ZM213.603 22.0243L213.627 22.0785C217.51 31.1663 217.069 42.0384 212.307 50.7222C207.718 59.0925 200.661 64.7204 187.526 72.0978L185.223 73.3795C175.44 78.7919 166.617 83.3735 150.729 91.3752L134.604 99.4826C117.95 107.884 108.992 112.579 98.459 118.5C82.3308 127.566 68.6058 136.381 56.1835 145.885L55.2911 146.571C47.6638 152.471 42.7954 157.117 38.9957 162.625C36.4199 166.359 35.1972 169.667 35.6112 172.782C35.7027 173.47 35.9173 174.165 36.2366 174.82L36.3612 175.064L36.3952 175.126L36.4197 175.156C37.296 176.198 38.2975 177.143 39.3787 177.955L39.7054 178.194L39.7603 178.232L39.8671 178.274C40.4243 178.479 40.9879 178.576 41.5453 178.56L41.5786 178.558L41.5657 178.414C41.2896 174.839 44.5512 171.752 49.46 169.604L49.695 169.503C93.6412 150.745 136.911 140.074 178.92 138.72C225.483 137.219 270.365 147.527 307.361 169.277C308.49 169.941 309.453 170.561 310.269 171.179L310.819 171.613C312.347 172.873 313.282 174.157 313.792 175.802C314.315 177.489 313.893 179.399 312.906 180.805L312.844 180.89C314.793 180.607 316.726 179.907 318.542 178.833L318.827 178.66L318.974 178.569L319.209 178.407C320.23 177.686 321.201 176.892 322.105 176.04L322.488 175.671L322.716 175.443L322.81 175.342C324.15 173.867 325.242 172.195 326.017 170.424C328.767 164.138 328.364 156.336 325.308 148.833L325.086 148.297C322.736 142.704 319.669 138.165 313.124 129.778C295.242 106.858 276.35 83.9051 256.352 60.7391L254.413 58.4965C245.998 48.7769 240.697 43.0313 234.754 37.499L234.47 37.2357C227.63 30.898 220.917 25.9201 213.888 22.1752L213.603 22.0243ZM48.0469 173.652L47.8831 173.734C46.6119 174.374 45.8924 174.928 45.3448 175.71C44.5311 176.873 44.6612 178.563 45.5889 179.136C46.2797 179.563 47.0198 179.495 48.7838 178.897L49.2432 178.738C50.2266 178.392 51.0094 178.156 51.6838 178.049L51.7473 178.039L51.371 177.55C50.9239 176.978 50.464 176.416 49.9918 175.865L49.5155 175.317L48.0469 173.652ZM88.2639 47.9333L88.0358 47.981L88.0612 48.2345C88.2528 50.1823 87.0432 51.8005 84.947 53.253L84.7598 53.3807C81.6982 55.4374 78.29 56.9755 74.7222 57.9107C71.8141 58.6729 69.5163 58.7058 67.5564 57.643C67.3446 57.5282 66.8556 57.708 66.2399 58.2193C64.829 59.3909 63.5915 60.7715 62.5792 62.3008L62.3704 62.6231L69.6239 62.5786C72.0639 62.5523 73.4276 62.4925 74.9832 62.3264L75.1569 62.3075C83.6315 61.3686 91.6842 56.9957 97.0862 50.3991L97.3133 50.1146C97.8051 49.4796 98.0349 49.0373 98.0882 48.5895C98.1427 48.1313 97.8728 47.6808 97.6169 47.6443C94.5141 47.2022 91.3369 47.3106 88.2639 47.9333ZM86.9458 48.3153C79.1193 48.9886 71.8299 52.9455 68.6059 56.9714C68.6059 57.26 68.862 57.4408 69.3131 57.5232C70.3637 56.2336 71.83 54.9534 73.595 53.7883C74.2032 55.5912 77.9883 54.8293 80.6206 54.1571C84.1433 52.2395 86.9458 49.8773 86.9458 48.3153ZM209.744 19.2379L209.814 19.2997C210.014 19.4801 210.209 19.6663 210.4 19.8579L210.137 19.3755L209.814 19.262L209.744 19.2379Z" fill="#00160A"/>
<path d="M206.398 176.853C221.667 184.957 229.707 198.887 227.945 199.69C226.184 200.494 211.862 175.359 176.445 178.295C130.766 179.878 125.116 211.456 123.283 210.834C121.45 210.212 128.559 190.092 145.52 179.356C162.482 168.62 191.128 168.748 206.398 176.853Z" fill="#E7EAEE"/>
<path d="M196.975 242.459C196.834 241.978 196.615 241.522 196.326 241.112C195.896 240.57 195.432 240.057 194.936 239.575C194.303 238.918 191.832 236.833 191.706 236.285C191.661 236.193 191.59 236.116 191.502 236.065C191.37 235.962 191.225 235.876 191.089 235.777C190.759 235.538 190.439 235.284 190.099 235.059C189.975 234.976 189.771 234.999 189.665 234.904C189.238 234.523 188.856 234.088 188.416 233.725C187.885 233.286 187.296 232.918 186.761 232.485C186.268 232.131 185.706 231.883 185.112 231.759C184.361 231.532 183.561 231.531 182.81 231.755C182.121 231.968 181.7 232.441 181.266 232.918C180.853 233.37 180.662 233.982 180.746 234.588C180.684 234.582 180.624 234.573 180.563 234.56C179.613 234.286 178.8 234.63 178.06 235.171C177.583 235.514 177.195 235.966 176.927 236.489C176.673 236.942 176.542 237.454 176.546 237.974C176.536 238.169 176.516 238.363 176.485 238.555C176.439 239.082 176.396 239.609 176.356 240.136C176.334 240.421 176.4 240.743 176.289 240.985C176.049 241.471 175.961 242.017 176.036 242.553C176.079 242.831 176.106 243.111 176.389 243.177C176.323 243.291 176.272 243.413 176.237 243.539C176.201 243.792 176.197 244.05 176.18 244.305C176.127 245.101 176.062 245.895 176.027 246.691C176.009 247.097 176.061 247.506 176.05 247.913C175.984 248.899 176.166 249.885 176.581 250.782C176.846 251.361 177.235 251.876 177.72 252.29C178.173 252.652 178.645 252.993 179.239 253.081C179.575 253.132 179.915 253.152 180.254 253.183C180.508 253.206 181.023 253.237 181.213 253.261C181.466 253.192 181.771 253.214 182.013 253.159C182.099 253.139 182.184 253.119 182.269 253.1C182.786 252.906 183.38 252.63 183.732 252.466C184.507 252.1 185.189 251.563 185.727 250.897C186.102 250.489 186.357 249.986 186.465 249.442C186.576 248.729 186.504 248 186.257 247.322C185.956 246.523 185.615 245.739 185.302 244.944C184.981 244.129 184.656 243.313 184.367 242.486C184.235 242.203 184.188 241.887 184.235 241.577C184.268 241.226 184.229 240.873 184.12 240.538C184.004 240.016 183.85 239.504 183.711 238.988L183.836 238.938C183.917 239.063 183.992 239.191 184.08 239.311C184.287 239.658 184.534 239.979 184.816 240.269C185.094 240.521 185.3 240.842 185.414 241.199C185.602 241.684 185.723 242.195 185.929 242.671C186.337 243.614 186.767 244.546 187.221 245.469C187.393 245.83 187.62 246.164 187.893 246.457C188.757 247.372 189.889 247.989 191.126 248.219C191.851 248.344 192.595 248.315 193.309 248.134C194.244 247.943 195.098 247.472 195.757 246.782C195.976 246.539 196.168 246.272 196.33 245.987C196.61 245.553 196.852 245.095 197.055 244.62C197.325 243.905 197.192 243.161 196.975 242.459ZM187.811 233.538C188.345 234.023 188.87 234.519 189.43 235.04C189.204 235.111 189.062 235.21 188.895 234.97C188.718 234.78 188.524 234.606 188.316 234.45C188.248 234.351 188.195 234.242 188.159 234.127C188.022 234.12 187.777 234.136 187.83 233.832C187.662 233.784 187.506 233.739 187.309 233.682C187.491 233.428 187.653 233.395 187.811 233.538ZM187.519 233.33L187.002 233.496L187.118 233.113L186.773 233.219C186.635 233.102 186.521 232.97 186.65 232.767C186.919 232.941 187.188 233.116 187.519 233.33ZM186.032 232.429L186.644 232.764C186.344 232.885 186.147 232.752 185.991 232.515L186.032 232.429ZM181.64 235.852L181.911 236.22L181.809 236.303L181.549 235.918L181.64 235.852ZM176.96 240.545C177.043 239.591 177.099 238.634 177.232 237.687C177.276 237.248 177.427 236.827 177.671 236.459C178.102 235.891 178.587 235.348 179.385 235.216C179.847 235.098 180.334 235.131 180.775 235.311C180.853 235.34 180.921 235.392 180.969 235.461C181.285 236.095 181.702 236.673 182.204 237.172C182.592 237.604 182.861 238.129 182.985 238.695C183.084 239.078 183.134 239.473 183.202 239.864C183.212 239.958 183.217 240.053 183.217 240.148C182.151 239.856 181.099 239.953 180.069 240.083C179.041 240.212 178.033 240.501 176.989 240.726C176.97 240.668 176.96 240.606 176.96 240.545ZM181.965 236.417L182.067 236.375L182.33 236.603C182.225 236.633 182.119 236.689 182.096 236.664C182.04 236.589 181.996 236.505 181.965 236.417ZM182.393 236.825C182.45 236.828 182.533 236.808 182.558 236.837C182.641 236.935 182.791 237.04 182.529 237.228L182.393 236.825ZM176.377 241.941C176.393 241.625 176.444 241.369 176.842 241.261C177.245 241.152 177.603 240.88 178.004 240.753C178.506 240.593 179.021 240.476 179.543 240.404C180.177 240.307 180.819 240.26 181.461 240.263C182.079 240.291 182.694 240.364 183.301 240.483C183.647 240.592 183.906 240.882 183.974 241.239C183.482 241.387 182.369 241.403 182.297 241.414C181.643 241.515 180.986 241.599 180.333 241.702C180.028 241.75 179.73 241.839 179.426 241.893C179.325 241.911 178.521 242.088 178.271 242.152C177.66 242.31 177.042 242.437 176.378 242.588C176.377 242.382 176.366 242.161 176.377 241.941ZM177.693 251.895L176.952 250.909L177.002 250.863C177.063 250.931 177.124 250.997 177.184 251.065C177.342 251.243 177.505 251.416 177.652 251.602C177.7 251.684 177.736 251.772 177.76 251.864L177.693 251.895ZM178.604 252.465L178.549 252.511L178.162 252.249L178.525 252.12L178.604 252.465ZM179.177 252.73C178.983 252.75 178.841 252.675 178.821 252.482C178.816 252.427 178.947 252.349 179.028 252.303C179.088 252.338 179.134 252.391 179.161 252.455C179.178 252.546 179.183 252.638 179.177 252.73ZM180.237 252.867L180.161 252.928C180.018 252.804 179.875 252.679 179.721 252.546L179.594 252.867L179.342 252.503L179.414 252.386C179.678 252.431 179.943 252.476 180.236 252.525L180.237 252.867ZM180.844 252.91C180.532 252.953 180.526 252.947 180.46 252.535C180.522 252.527 180.584 252.517 180.646 252.51C180.708 252.503 180.771 252.5 180.837 252.494L180.844 252.91ZM181.437 252.908C181.128 252.98 181.072 252.92 181.064 252.522C181.161 252.521 181.258 252.52 181.348 252.52L181.437 252.908ZM182.476 252.641C182.476 252.679 182.408 252.753 182.388 252.748C182.334 252.729 182.287 252.694 182.253 252.648C182.202 252.564 182.137 252.488 182.063 252.424C181.998 252.625 182.146 252.913 181.831 252.911C181.73 252.911 181.631 252.668 181.503 252.498L182.447 252.214C182.459 252.362 182.477 252.501 182.476 252.641L182.476 252.641ZM183.055 252.542L182.754 252.628L182.651 252.177C182.766 252.12 182.863 252.072 182.974 252.017L183.055 252.542ZM183.28 252.362L183.201 251.924L183.538 251.751C183.637 252.257 183.622 252.293 183.28 252.362ZM184.381 251.763L184.179 251.421L184.08 251.442C184.075 251.535 184.084 251.629 184.107 251.719C184.163 251.849 184.193 251.948 184.022 251.999C183.866 252.044 183.797 251.965 183.769 251.824C183.753 251.743 183.733 251.663 183.716 251.587C183.958 251.41 184.187 251.242 184.427 251.066L184.713 251.544C184.614 251.61 184.496 251.687 184.381 251.763L184.381 251.763ZM185.705 246.782C185.827 247.064 185.93 247.354 186.011 247.65C186.033 247.728 186.057 247.805 186.085 247.88C186.272 248.394 186.299 248.952 186.164 249.482C186.16 249.496 186.135 249.504 186.119 249.515C186.119 249.857 185.968 250.181 185.705 250.401L185.321 250.202L185.25 250.277L185.586 250.62C185.507 250.709 185.401 250.828 185.296 250.947L185.044 250.629C184.853 250.826 184.913 250.941 185.231 251.048L184.837 251.405L184.62 250.905C184.951 250.399 185.25 249.873 185.515 249.329C185.559 249.073 185.618 248.82 185.69 248.571C185.707 248.512 185.798 248.466 185.865 248.433C185.929 248.409 185.997 248.393 186.065 248.384L186.072 248.303L185.769 248.21L185.705 246.782ZM185.454 247.191C185.58 247.865 185.514 248.561 185.263 249.199C184.998 250.109 184.386 250.879 183.559 251.343C183.097 251.616 182.616 251.852 182.118 252.05C181.73 252.187 181.32 252.247 180.909 252.226C180.227 252.21 179.549 252.113 178.889 251.936C178.385 251.78 177.445 250.867 177.398 250.797C177.25 250.575 177.103 250.352 176.978 250.117C176.676 249.602 176.476 249.034 176.389 248.444C176.333 247.907 176.313 247.366 176.329 246.826C176.346 246.243 176.419 245.66 176.469 245.078C176.516 244.528 176.559 243.977 176.624 243.429C176.651 243.324 176.724 243.236 176.822 243.19C177.097 243.08 177.378 242.988 177.665 242.914C177.871 242.86 178.091 242.862 178.297 242.809C179.164 242.585 180.019 242.294 180.897 242.134C181.64 241.999 182.415 242.046 183.167 241.945C183.729 241.87 183.922 242.128 184.045 242.607C184.18 243.136 184.378 243.649 184.544 244.171C184.564 244.234 184.796 244.802 184.865 245.093C185.034 245.799 185.286 246.485 185.454 247.191L185.454 247.191ZM183.411 237.917C183.341 237.921 183.216 237.943 183.211 237.927C183.186 237.826 183.171 237.722 183.165 237.618L183.338 237.594L183.411 237.917ZM182.879 237.614L182.786 237.202L182.881 237.169L183.178 237.482L182.879 237.614ZM182.896 236.857C182.415 236.354 181.902 235.88 181.607 235.223C181.159 234.373 181.454 233.321 182.279 232.829C182.822 232.461 183.468 232.274 184.124 232.296C184.874 232.3 185.597 232.572 186.163 233.063C186.781 233.584 187.402 234.102 188.012 234.634C188.234 234.827 188.426 235.054 188.66 235.293C188.329 235.45 188.012 235.592 187.703 235.748C186.806 236.195 185.966 236.748 185.201 237.395C184.968 237.609 184.758 237.847 184.575 238.105C184.438 238.285 184.342 238.337 184.165 238.15C183.75 237.711 183.313 237.294 182.896 236.857ZM183.601 238.311C183.559 238.223 183.534 238.128 183.526 238.032L183.602 238L183.836 238.197L183.835 238.293C183.754 238.301 183.625 238.344 183.601 238.311L183.601 238.311ZM184.036 238.898L183.881 238.494C183.949 238.49 184.028 238.461 184.081 238.487C184.264 238.575 184.211 238.693 184.036 238.898ZM184.95 239.86C184.738 239.702 184.553 239.511 184.402 239.295C184.34 239.201 184.381 239.003 184.434 238.876C184.733 238.22 185.207 237.659 185.805 237.255C186.672 236.596 187.625 236.06 188.637 235.66C188.8 235.597 188.963 235.534 189.122 235.46C189.812 235.138 190.537 235.511 190.927 236.182C190.698 236.234 190.481 236.276 190.267 236.333C188.265 236.774 186.495 237.934 185.291 239.594C185.209 239.713 184.98 239.883 184.95 239.86ZM186.101 242.049C185.921 241.561 185.713 241.083 185.48 240.618C185.383 240.489 185.403 240.307 185.524 240.201C185.667 240.054 185.8 239.896 185.948 239.755C186.889 238.863 187.864 238.014 189.025 237.414C189.378 237.227 189.742 237.061 190.115 236.917C190.466 236.776 190.832 236.676 191.206 236.618C191.355 236.6 191.552 236.767 191.692 236.889C192.026 237.183 192.345 237.495 192.661 237.808C193.255 238.397 193.856 238.98 194.431 239.587C195.077 240.269 195.489 241.088 195.816 242.178C195.865 242.729 195.879 243.283 195.858 243.835C195.78 244.472 195.445 245.05 194.93 245.432C194.426 245.858 193.887 246.241 193.317 246.574C192.322 247.141 191.125 247.229 190.058 246.812C189.43 246.566 188.851 246.211 188.347 245.763C187.944 245.376 187.586 244.944 187.282 244.475C186.768 243.73 186.37 242.913 186.101 242.049L186.101 242.049ZM188.594 246.81C188.484 246.591 188.404 246.431 188.315 246.254C188.147 246.36 188.036 246.226 187.93 246.063C187.739 245.77 187.542 245.481 187.348 245.19L187.412 245.141C187.855 245.595 188.178 246.183 188.841 246.386C188.754 246.536 188.699 246.63 188.594 246.81L188.594 246.81ZM189.402 247.162C189.056 247.155 188.913 246.97 188.974 246.58C189.421 246.807 189.421 246.807 189.402 247.162L189.402 247.162ZM196.863 243.27C196.817 243.417 197.04 243.707 196.623 243.663C196.575 243.676 196.536 243.713 196.523 243.762C196.535 243.812 196.571 243.853 196.62 243.87C196.724 243.883 196.829 243.887 196.934 243.882C196.901 244.083 196.856 244.282 196.799 244.477C196.789 244.506 196.612 244.493 196.519 244.473C196.401 244.44 196.286 244.4 196.174 244.352L196.117 244.482C196.301 244.578 196.485 244.674 196.699 244.786C196.628 244.964 196.543 245.136 196.444 245.3C196.263 245.557 196.14 245.15 195.903 245.268L196.224 245.661L195.934 246.012C195.632 246.626 195.12 247.112 194.492 247.384C194.332 247.458 194.264 247.447 194.184 247.298C194.116 247.192 194.04 247.091 193.955 246.996L193.85 247.063L194.099 247.586C193.929 247.704 193.764 247.861 193.578 247.665C193.466 247.524 193.368 247.372 193.286 247.213L193.198 247.244L193.39 247.876C193.235 247.871 193.026 247.922 192.898 247.843C192.771 247.765 192.724 247.555 192.623 247.369C192.436 247.585 192.611 247.744 192.656 247.92C192.296 248.233 192.265 247.795 192.081 247.614C192.053 247.742 192.06 247.842 192.014 247.89C191.944 247.962 191.852 248.01 191.753 248.027C191.713 248.032 191.639 247.92 191.613 247.849C191.576 247.728 191.547 247.605 191.525 247.48L191.421 247.491L191.368 248.014C191.216 247.951 191.033 247.932 190.965 247.834C190.89 247.724 190.92 247.542 190.904 247.392L190.784 247.381L190.697 247.807C190.263 247.845 190.399 247.423 190.213 247.171C190.16 247.34 190.121 247.467 190.082 247.594C189.674 247.453 189.575 247.296 189.701 246.975C190.346 247.242 191.043 247.364 191.741 247.332C192.386 247.302 193.012 247.103 193.555 246.754C194.06 246.44 194.548 246.1 195.018 245.736C195.446 245.39 195.78 244.943 195.992 244.435C196.231 243.821 196.267 243.147 196.094 242.511C195.979 242.033 195.875 241.552 195.759 241.041C196.049 241.228 196.274 241.5 196.402 241.819C196.523 242.088 196.63 242.363 196.72 242.644C196.795 242.782 196.773 242.953 196.664 243.067C196.475 243.283 196.755 243.211 196.863 243.27Z" fill="#FFB61D"/>
<path d="M195.423 245.57C195.498 245.937 195.626 246.038 195.933 246.011C195.944 245.985 195.965 245.947 195.96 245.943C195.792 245.823 195.622 245.706 195.423 245.57Z" fill="#F93059"/>
<path d="M195.935 246.011L195.933 246.011L195.93 246.016L195.935 246.011Z" fill="#F93059"/>
<path d="M194.286 246.726C194.414 246.881 194.541 247.036 194.668 247.191L194.781 247.081L194.389 246.636L194.286 246.726Z" fill="#F93059"/>
<path d="M194.823 246.281L195.233 246.651L195.326 246.54L194.909 246.179L194.823 246.281Z" fill="#F93059"/>
</svg>
